<?xml version="1.0" encoding="UTF-8" standalone="no"?>
<!-- Created with Inkscape (http://www.inkscape.org/) -->

<svg
   width="210mm"
   height="297mm"
   viewBox="0 0 210 297"
   version="1.1"
   id="svg1"
   xmlns="http://www.w3.org/2000/svg"
   xmlns:svg="http://www.w3.org/2000/svg">
  <defs
     id="defs1" />
  <g
     id="layer1">
    <path
       style="fill:none;fill-rule:evenodd;stroke:#000000;stroke-width:0.264583"
       id="path2"
       d="m 18.775862,19.724136 c 1.492914,0.912865 -0.493973,2.462794 -1.517242,2.481322 -2.772996,0.05021 -4.008983,-3.219154 -3.445401,-5.515805 1.008116,-4.108169 5.809801,-5.718683 9.514367,-4.409481 5.436601,1.921306 7.468059,8.431619 5.373562,13.51293 -2.791636,6.77259 -11.06398,9.23368 -17.511494,6.337642 C 3.0761161,28.486376 0.18208422,18.429504 3.8879323,10.620687 8.376211,1.1631634 20.229166,-2.1655363 29.396552,2.3548854 40.200001,7.6820459 43.964416,21.337812 38.626434,31.862069 32.463523,44.01274 17.00068,48.213566 5.1206879,42.05603 -8.3781138,35.059448 -13.015837,17.78665 -6.0373539,4.551721 1.7914496,-10.295869 20.876237,-15.370846 35.465519,-7.5704009 51.662387,1.0895714 57.174886,21.987839 48.551721,37.931035"
       transform="translate(32.431034,28.637931)" />
  </g>
</svg>
