<?xml version="1.0" standalone="no"?>
<!DOCTYPE svg PUBLIC "-//W3C//DTD SVG 1.1//EN" "http://www.w3.org/Graphics/SVG/1.1/DTD/svg11.dtd"><svg xmlns="http://www.w3.org/2000/svg" viewBox="0 0 612 792" width="612" height="792"><title>CNC Fill Text</title>
<g><path d="M1.421999954223633 5.166000028610228L2.7179999542236324 4.482000028610228 3.7979999542236325 4.194000028610228 4.8779999542236325 4.086000028610228 5.615999954223632 4.3740000286102285 6.173999954223632 4.986000028610229 6.407999954223632 5.904000028610229 6.245999954223631 7.146000028610228 5.561999954223631 10.944000028610228 5.327999954223631 12.472200028610228 5.561999954223631 10.944000028610228 4.715999954223631 11.451600028610228 3.7979999542236307 12.020400028610227 2.843999954223631 12.416400028610228 1.8179999542236311 12.585600028610228 0.9719999542236311 12.303000028610228 0.395999954223631 11.849400028610228-4.577636891767156e-8 11.113200028610228 0.17999995422363124 10.026000028610229 0.7919999542236313 9.180000028610229 1.8179999542236311 8.442000028610229 2.7899999542236316 8.100000028610228 3.905999954223631 7.758000028610228 4.931999954223631 7.596000028610227 5.615999954223631 7.542000028610227 6.119999954223632 7.542000028610227" fill="none" stroke-linecap="join" stroke-width="1" stroke="#000000"></path><path d="M8.909999954223633 16.380000028610226L11.069999954223633 4.194000028610226 10.781999954223632 6.012000028610226 11.861999954223633 5.040000028610226 13.103999954223632 4.428000028610226 14.129999954223631 4.248000028610226 15.31799995422363 4.248000028610226 16.16399995422363 4.770000028610227 16.73999995422363 5.904000028610227 16.90199995422363 7.200000028610226 16.68599995422363 8.676000028610225 16.21799995422363 9.918000028610226 15.371999954223629 11.224800028610225 14.29199995422363 12.076200028610225 13.553999954223631 12.416400028610225 12.47399995422363 12.472200028610224 11.62799995422363 12.303000028610224 10.78199995422363 11.791800028610224 9.98999995422363 11.169000028610224" fill="none" stroke-linecap="join" stroke-width="1" stroke="#000000"></path><path d="M19.115999954223632 16.380000028610226L21.275999954223632 4.194000028610226 20.987999954223632 6.012000028610226 22.06799995422363 5.040000028610226 23.30999995422363 4.428000028610226 24.33599995422363 4.248000028610226 25.52399995422363 4.248000028610226 26.36999995422363 4.770000028610227 26.94599995422363 5.904000028610227 27.10799995422363 7.200000028610226 26.89199995422363 8.676000028610225 26.42399995422363 9.918000028610226 25.57799995422363 11.224800028610225 24.49799995422363 12.076200028610225 23.75999995422363 12.416400028610225 22.679999954223632 12.472200028610224 21.833999954223632 12.303000028610224 20.987999954223632 11.791800028610224 20.19599995422363 11.169000028610224" fill="none" stroke-linecap="join" stroke-width="1" stroke="#000000"></path><path d="M32.32799995422363 2.8610228852699038e-8L30.293999954223633 11.736000028610228 30.293999954223633 12.133800028610228 30.40199995422363 12.358800028610228 30.689999954223627 12.529800028610227 31.013999954223625 12.529800028610227" fill="none" stroke-linecap="join" stroke-width="1" stroke="#000000"></path><path d="M34.937996139526376 8.100000028610228L41.18399613952638 8.100000028610228 41.34599613952638 7.092000028610229 41.291996139526375 5.778000028610229 40.66199613952637 4.770000028610229 39.86999613952637 4.19400002861023 38.68199613952637 4.140000028610229 37.43999613952637 4.482000028610229 36.30599613952637 5.328000028610229 35.67599613952637 6.174000028610229 35.06399613952637 7.254000028610228 34.77599613952637 8.388000028610229 34.77599613952637 9.756000028610229 35.06399613952637 10.998000028610228 35.90999613952636 12.020400028610227 36.80999613952636 12.472200028610228 37.997996139526364 12.585600028610228 39.02399613952637 12.303000028610228 40.15799613952637 11.791800028610227" fill="none" stroke-linecap="join" stroke-width="1" stroke="#000000"></path></g>
</svg>