<?xml version="1.0" standalone="no"?>
<!DOCTYPE svg PUBLIC "-//W3C//DTD SVG 1.1//EN" "http://www.w3.org/Graphics/SVG/1.1/DTD/svg11.dtd"><svg xmlns="http://www.w3.org/2000/svg" viewBox="0 0 612 792" width="612" height="792"><title>CNC Fill Text</title>
<g><path d="M2.9520004577636723 1.4400000381469713L1.0560004577636724 11.952000038146972 1.0560004577636724 13.296000038146971 1.5120004577636728 14.736000038146972 2.1840004577636725 15.722400038146972 3.4080004577636727 16.478400038146972 4.680000457763672 16.78080003814697 6.264000457763672 16.55520003814697 8.016000457763672 15.722400038146972 9.384000457763673 14.352000038146972 10.200000457763673 13.152000038146973 10.656000457763673 11.496000038146972 12.408000457763674 1.5120000381469723" fill="none" stroke-linecap="join" stroke-width="1" stroke="#000000"></path><path d="M14.903999980926514 21.84000003814697L17.783999980926513 5.5920000381469706 17.399999980926513 8.01600003814697 18.839999980926514 6.720000038146971 20.495999980926513 5.904000038146971 21.86399998092651 5.664000038146971 23.44799998092651 5.664000038146971 24.57599998092651 6.360000038146971 25.34399998092651 7.872000038146972 25.559999980926513 9.600000038146971 25.271999980926513 11.568000038146971 24.647999980926514 13.224000038146972 23.519999980926514 14.966400038146972 22.079999980926512 16.101600038146973 21.095999980926514 16.555200038146975 19.655999980926513 16.629600038146975 18.527999980926513 16.404000038146975 17.399999980926513 15.722400038146976 16.34399998092651 14.892000038146975" fill="none" stroke-linecap="join" stroke-width="1" stroke="#000000"></path><path d="M32.52000379562378 3.814697180359872e-8L29.808003795623776 15.648000038146971 29.808003795623776 16.17840003814697 29.952003795623774 16.478400038146972 30.336003795623775 16.706400038146974 30.768003795623777 16.706400038146974" fill="none" stroke-linecap="join" stroke-width="1" stroke="#000000"></path><path d="M39.71999616622925 16.706401945495603L39.791996166229254 16.706401945495603 41.37599616622926 16.329601945495604 42.95999616622926 15.345601945495606 44.08799616622926 13.824001945495606 44.85599616622926 12.168001945495606 45.14399616622926 10.584001945495606 45.14399616622926 9.144001945495607 44.927996166229256 7.872001945495606 44.39999616622926 6.888001945495606 43.415996166229256 5.9760019454956055 42.35999616622926 5.592001945495605 41.37599616622926 5.520001945495605 40.07999616622926 5.736001945495605 38.80799616622926 6.432001945495605 37.65599616622926 7.560001945495605 36.91199616622926 8.616001945495604 36.16799616622926 10.200001945495604 35.99999616622926 11.424001945495604 35.85599616622926 12.840001945495604 35.99999616622926 14.136001945495604 36.69599616622926 15.345601945495606 37.583996166229255 16.178401945495605 38.63999616622925 16.629601945495605 39.71999616622925 16.706401945495603" fill="none" stroke-linecap="join" stroke-width="1" stroke="#000000"></path><path d="M50.83200379562378 6.888000991821288L52.56000379562378 5.976000991821287 54.000003795623776 5.592000991821287 55.440003795623774 5.448000991821287 56.424003795623776 5.832000991821287 57.168003795623775 6.648000991821288 57.48000379562377 7.872000991821288 57.26400379562377 9.528000991821289 56.35200379562377 14.592000991821287 56.040003795623775 16.629600991821288 56.35200379562377 14.592000991821287 55.22400379562377 15.268800991821287 54.000003795623776 16.027200991821285 52.72800379562378 16.555200991821284 51.360003795623776 16.780800991821284 50.232003795623775 16.404000991821285 49.464003795623775 15.799200991821284 48.936003795623776 14.817600991821283 49.17600379562378 13.368000991821283 49.99200379562378 12.240000991821283 51.36000379562378 11.256000991821283 52.65600379562378 10.800000991821284 54.14400379562378 10.344000991821284 55.512003795623784 10.128000991821285 56.42400379562378 10.056000991821286 57.09600379562378 10.056000991821286" fill="none" stroke-linecap="join" stroke-width="1" stroke="#000000"></path><path d="M72.31199998092652 3.814697180359872e-8L69.28799998092651 16.62960003814697 69.74399998092652 14.352000038146972 68.44799998092651 15.422400038146971 66.86399998092651 16.40400003814697 65.35199998092651 16.78080003814697 64.1519999809265 16.55520003814697 63.071999980926506 16.027200038146972 62.01599998092651 14.736000038146972 61.65599998092651 13.008000038146973 61.8719999809265 10.896000038146973 62.8559999809265 8.400000038146972 64.3679999809265 6.504000038146971 66.4079999809265 5.592000038146971 67.9199999809265 5.448000038146971 69.2879999809265 5.976000038146971 70.1999999809265 6.5760000381469705 70.9439999809265 7.488000038146971" fill="none" stroke-linecap="join" stroke-width="1" stroke="#000000"></path><path d="M84.69599998092652 5.6640000381469715L87.19199998092651 17.084400038146974M93.16799998092651 5.7360000381469725L86.13599998092651 19.051200038146973 85.39199998092651 20.184000038146973 84.40799998092652 21.024000038146973 83.42399998092652 21.55200003814697 81.83039998092653 21.55200003814697" fill="none" stroke-linecap="join" stroke-width="1" stroke="#000000"></path><path d="M99.38398472213746 16.706401945495603L99.45598472213746 16.706401945495603 101.03998472213746 16.329601945495604 102.62398472213746 15.345601945495606 103.75198472213746 13.824001945495606 104.51998472213747 12.168001945495606 104.80798472213746 10.584001945495606 104.80798472213746 9.144001945495607 104.59198472213747 7.872001945495606 104.06398472213746 6.888001945495606 103.07998472213747 5.9760019454956055 102.02398472213747 5.592001945495605 101.03998472213748 5.520001945495605 99.74398472213747 5.736001945495605 98.47198472213746 6.432001945495605 97.31998472213746 7.560001945495605 96.57598472213746 8.616001945495604 95.83198472213746 10.200001945495604 95.66398472213746 11.424001945495604 95.51998472213745 12.840001945495604 95.66398472213746 14.136001945495604 96.35998472213745 15.345601945495606 97.24798472213746 16.178401945495605 98.30398472213746 16.629601945495605 99.38398472213746 16.706401945495603" fill="none" stroke-linecap="join" stroke-width="1" stroke="#000000"></path><path d="M118.12799998092652 5.735998607635498L116.15999998092651 16.7063986076355 116.68799998092652 13.823998607635499 115.63199998092652 14.8175986076355 114.50399998092652 15.7991986076355 112.99199998092652 16.5551986076355 111.69599998092652 16.7807986076355 110.42399998092651 16.4039986076355 109.5839999809265 15.6479986076355 109.29599998092651 14.663998607635499 109.5119999809265 12.767998607635498 110.7119999809265 5.735998607635498" fill="none" stroke-linecap="join" stroke-width="1" stroke="#000000"></path><path d="M122.35199998092654 16.706400991821287L124.31999998092654 5.592000991821285 123.71999998092654 9.000000991821285 124.63199998092654 7.632000991821284 125.90399998092653 6.264000991821284 127.10399998092652 5.7360009918212835 128.2559999809265 5.592000991821283 128.9279999809265 5.6640009918212835" fill="none" stroke-linecap="join" stroke-width="1" stroke="#000000"></path><path d="M143.3760152397156 16.706401945495603L143.4480152397156 16.706401945495603 145.0320152397156 16.329601945495604 146.6160152397156 15.345601945495606 147.74401523971562 13.824001945495606 148.51201523971562 12.168001945495606 148.80001523971563 10.584001945495606 148.80001523971563 9.144001945495607 148.58401523971563 7.872001945495606 148.05601523971563 6.888001945495606 147.07201523971563 5.9760019454956055 146.0160152397156 5.592001945495605 145.0320152397156 5.520001945495605 143.7360152397156 5.736001945495605 142.46401523971562 6.432001945495605 141.31201523971563 7.560001945495605 140.56801523971563 8.616001945495604 139.82401523971564 10.200001945495604 139.65601523971563 11.424001945495604 139.51201523971562 12.840001945495604 139.65601523971563 14.136001945495604 140.35201523971563 15.345601945495606 141.24001523971563 16.178401945495605 142.29601523971564 16.629601945495605 143.37601523971566 16.706401945495603" fill="none" stroke-linecap="join" stroke-width="1" stroke="#000000"></path><path d="M153.43199998092655 5.592000038146972L154.63199998092654 16.93320003814697 154.94399998092655 16.93320003814697 160.15199998092655 5.5920000381469706 160.60799998092654 5.5920000381469706 161.80799998092652 16.93320003814697 162.11999998092654 16.93320003814697 167.32799998092653 5.5920000381469706" fill="none" stroke-linecap="join" stroke-width="1" stroke="#000000"></path><path d="M169.82399998092652 16.780801945495604L171.7919999809265 5.592001945495603 171.33599998092652 8.304001945495603 172.5359999809265 7.248001945495602 173.6879999809265 6.360001945495602 174.5039999809265 5.904001945495602 175.72799998092648 5.592001945495602 176.47199998092648 5.5200019454956015 177.5999999809265 5.832001945495602 178.1279999809265 6.264001945495602 178.58399998092648 7.032001945495603 178.8239999809265 8.088001945495602 177.23999998092648 16.780801945495604" fill="none" stroke-linecap="join" stroke-width="1" stroke="#000000"></path><path d="M191.5199999809265 14.591998369216917L192.6719999809265 15.647998369216918 193.7279999809265 16.25279836921692 195.1679999809265 16.555198369216917 196.89599998092652 16.629598369216918 198.9359999809265 15.873598369216918 200.3759999809265 14.735998369216919 201.1199999809265 13.223998369216918 201.28799998092651 11.879998369216919 200.75999998092652 10.511998369216919 199.17599998092652 9.383998369216918 196.36799998092653 8.015998369216918 194.78399998092652 6.887998369216918 194.01599998092652 5.663998369216918 194.32799998092653 4.151998369216917 195.23999998092654 2.5679983692169177 197.03999998092655 1.5119983692169177 198.79199998092656 1.2719983692169174 200.37599998092657 1.4399983692169176 201.43199998092658 2.0399983692169172 202.41599998092659 2.879998369216917" fill="none" stroke-linecap="join" stroke-width="1" stroke="#000000"></path><path d="M206.11199998092653 1.4400000381469713L208.39199998092653 16.706400038146974 216.23999998092654 1.5120000381469723" fill="none" stroke-linecap="join" stroke-width="1" stroke="#000000"></path><path d="M224.25596946334844 9.59999765396118L228.40796946334842 9.59999765396118 227.4239694633484 15.194397653961182 226.2959694633484 15.873597653961184 224.1119694633484 16.629597653961184 222.5039694633484 16.706397653961183 221.0879694633484 16.403997653961184 219.7919694633484 15.647997653961184 218.51996946334842 13.823997653961184 217.89596946334842 11.567997653961184 218.13596946334843 8.927997653961183 218.87996946334843 6.359997653961184 220.31996946334843 4.0799976539611835 222.14396946334844 2.3519976539611838 223.94396946334845 1.583997653961184 225.83996946334844 1.2719976539611841 227.73596946334843 1.583997653961184 228.79196946334844 2.2559976539611837 229.46396946334843 2.9519976539611834" fill="none" stroke-linecap="join" stroke-width="1" stroke="#000000"></path><path d="M231.51839998092655 15.268799084472654L232.72799998092654 16.178399084472655 234.09599998092654 16.629599084472655 235.29599998092652 16.780799084472655 236.87999998092653 16.252799084472656 238.24799998092652 15.345599084472656 238.7759999809265 13.991999084472656 238.7039999809265 12.623999084472656 237.5759999809265 11.495999084472656 235.8239999809265 10.727999084472655 234.23999998092648 9.983999084472655 233.39999998092648 8.999999084472655 233.39999998092648 7.871999084472655 234.02399998092648 6.791999084472655 235.36799998092647 5.735999084472655 236.95199998092647 5.519999084472655 238.39199998092647 5.831999084472655 239.54399998092646 6.575999084472656" fill="none" stroke-linecap="join" stroke-width="1" stroke="#000000"></path><path d="M256.2239999809265 16.25280337600708L255.33599998092654 16.62960337600708 254.25599998092656 16.62960337600708 253.27199998092658 16.32960337600708 252.67199998092656 15.34560337600708 252.83999998092656 13.68000337600708 254.25599998092656 5.904003376007081 251.99999998092656 5.904003376007081 257.8079999809266 5.904003376007081 254.25599998092656 5.904003376007081 254.87999998092658 2.4960033760070814" fill="none" stroke-linecap="join" stroke-width="1" stroke="#000000"></path><path d="M263.8799694633484 16.706401945495603L263.9519694633484 16.706401945495603 265.5359694633484 16.329601945495604 267.1199694633484 15.345601945495606 268.2479694633484 13.824001945495606 269.01596946334837 12.168001945495606 269.3039694633484 10.584001945495606 269.3039694633484 9.144001945495607 269.0879694633484 7.872001945495606 268.55996946334835 6.888001945495606 267.5759694633484 5.9760019454956055 266.5199694633484 5.592001945495605 265.5359694633484 5.520001945495605 264.2399694633484 5.736001945495605 262.9679694633484 6.432001945495605 261.81596946334844 7.560001945495605 261.0719694633484 8.616001945495604 260.3279694633484 10.200001945495604 260.1599694633484 11.424001945495604 260.01596946334837 12.840001945495604 260.1599694633484 14.136001945495604 260.8559694633484 15.345601945495606 261.7439694633484 16.178401945495605 262.79996946334836 16.629601945495605 263.87996946334835 16.706401945495603" fill="none" stroke-linecap="join" stroke-width="1" stroke="#000000"></path><path d="M289.65603049850466 15.422400038146971L288.21603049850467 16.32960003814697 286.41603049850465 16.70640003814697 284.80803049850465 16.47840003814697 283.29603049850465 15.34560003814697 282.5520304985046 13.752000038146969 282.4800304985046 11.880000038146969 282.86403049850463 9.912000038146969 283.7520304985046 8.08800003814697 285.1920304985046 6.64800003814697 286.7760304985046 5.83200003814697 288.4560304985046 5.59200003814697 289.7280304985046 5.83200003814697 290.6400304985046 6.264000038146969 290.8560304985046 6.720000038146969" fill="none" stroke-linecap="join" stroke-width="1" stroke="#000000"></path><path d="M293.95199998092653 16.706400991821287L295.91999998092655 5.592000991821285 295.3199999809265 9.000000991821285 296.2319999809265 7.632000991821284 297.5039999809265 6.264000991821284 298.7039999809265 5.7360009918212835 299.85599998092647 5.592000991821283 300.5279999809265 5.6640009918212835" fill="none" stroke-linecap="join" stroke-width="1" stroke="#000000"></path><path d="M302.18399998092656 10.80000051498413L310.51199998092653 10.80000051498413 310.72799998092654 9.456000514984131 310.65599998092654 7.704000514984131 309.81599998092656 6.360000514984131 308.7599999809266 5.592000514984131 307.1759999809266 5.520000514984131 305.51999998092657 5.976000514984131 304.00799998092657 7.104000514984131 303.1679999809266 8.232000514984131 302.3519999809266 9.67200051498413 301.9679999809266 11.184000514984131 301.9679999809266 13.008000514984131 302.3519999809266 14.664000514984131 303.4799999809266 16.02720051498413 304.6799999809266 16.62960051498413 306.2639999809266 16.78080051498413 307.6319999809266 16.40400051498413 309.1439999809266 15.72240051498413" fill="none" stroke-linecap="join" stroke-width="1" stroke="#000000"></path><path d="M315.64799998092656 6.888000991821288L317.37599998092657 5.976000991821287 318.81599998092656 5.592000991821287 320.25599998092656 5.448000991821287 321.23999998092654 5.832000991821287 321.98399998092657 6.648000991821288 322.2959999809266 7.872000991821288 322.0799999809266 9.528000991821289 321.1679999809266 14.592000991821287 320.8559999809266 16.629600991821288 321.1679999809266 14.592000991821287 320.0399999809266 15.268800991821287 318.8159999809266 16.027200991821285 317.5439999809266 16.555200991821284 316.17599998092663 16.780800991821284 315.04799998092665 16.404000991821285 314.2799999809267 15.799200991821284 313.75199998092666 14.817600991821283 313.99199998092666 13.368000991821283 314.80799998092664 12.240000991821283 316.17599998092663 11.256000991821283 317.4719999809266 10.800000991821284 318.9599999809266 10.344000991821284 320.3279999809266 10.128000991821285 321.2399999809266 10.056000991821286 321.9119999809266 10.056000991821286" fill="none" stroke-linecap="join" stroke-width="1" stroke="#000000"></path><path d="M330.83996946334844 16.25280337600708L329.95196946334846 16.62960337600708 328.8719694633485 16.62960337600708 327.8879694633485 16.32960337600708 327.2879694633485 15.34560337600708 327.4559694633485 13.68000337600708 328.8719694633485 5.904003376007081 326.6159694633485 5.904003376007081 332.4239694633485 5.904003376007081 328.8719694633485 5.904003376007081 329.4959694633485 2.4960033760070814" fill="none" stroke-linecap="join" stroke-width="1" stroke="#000000"></path><path d="M334.7759999809266 10.80000051498413L343.1039999809266 10.80000051498413 343.3199999809266 9.456000514984131 343.2479999809266 7.704000514984131 342.4079999809266 6.360000514984131 341.3519999809266 5.592000514984131 339.7679999809266 5.520000514984131 338.1119999809266 5.976000514984131 336.5999999809266 7.104000514984131 335.75999998092664 8.232000514984131 334.94399998092666 9.67200051498413 334.55999998092665 11.184000514984131 334.55999998092665 13.008000514984131 334.94399998092666 14.664000514984131 336.07199998092665 16.02720051498413 337.27199998092664 16.62960051498413 338.85599998092664 16.78080051498413 340.22399998092664 16.40400051498413 341.73599998092664 15.72240051498413" fill="none" stroke-linecap="join" stroke-width="1" stroke="#000000"></path><path d="M4.223999980926513 40.25280003814697L3.3359999809265135 40.629600038146975 2.2559999809265134 40.629600038146975 1.2719999809265135 40.32960003814698 0.6719999809265138 39.345600038146976 0.839999980926514 37.68000003814698 2.2559999809265143 29.90400003814698-1.907348590179936e-8 29.90400003814698 5.807999980926514 29.90400003814698 2.2559999809265143 29.90400003814698 2.879999980926514 26.496000038146978" fill="none" stroke-linecap="join" stroke-width="1" stroke="#000000"></path><path d="M8.159999980926514 34.79999813079834L16.487999980926514 34.79999813079834 16.703999980926515 33.45599813079834 16.631999980926516 31.70399813079834 15.791999980926516 30.35999813079834 14.735999980926515 29.591998130798338 13.151999980926515 29.51999813079834 11.495999980926515 29.975998130798338 9.983999980926514 31.103998130798338 9.143999980926514 32.23199813079834 8.327999980926514 33.671998130798336 7.943999980926513 35.18399813079834 7.943999980926513 37.007998130798335 8.327999980926514 38.66399813079833 9.455999980926514 40.02719813079833 10.655999980926513 40.629598130798335 12.239999980926513 40.78079813079834 13.607999980926511 40.403998130798335 15.119999980926512 39.72239813079833" fill="none" stroke-linecap="join" stroke-width="1" stroke="#000000"></path><path d="M18.218399980926517 40.933201945495604L27.887999980926516 29.520001945495604M20.711999980926514 29.520001945495604L26.375999980926515 40.933201945495604" fill="none" stroke-linecap="join" stroke-width="1" stroke="#000000"></path><path d="M34.77599616622925 40.25280003814697L33.88799616622925 40.629600038146975 32.80799616622925 40.629600038146975 31.82399616622925 40.32960003814698 31.22399616622925 39.345600038146976 31.391996166229248 37.68000003814698 32.807996166229245 29.90400003814698 30.551996166229245 29.90400003814698 36.359996166229244 29.90400003814698 32.807996166229245 29.90400003814698 33.43199616622925 26.496000038146978" fill="none" stroke-linecap="join" stroke-width="1" stroke="#000000"></path><path d="M51.50399616622925 40.7064019454956L51.57599616622925 40.7064019454956 53.159996166229256 40.3296019454956 54.74399616622926 39.345601945495595 55.87199616622926 37.824001945495596 56.63999616622926 36.1680019454956 56.927996166229256 34.584001945495594 56.927996166229256 33.144001945495596 56.711996166229255 31.872001945495597 56.18399616622926 30.888001945495596 55.199996166229255 29.976001945495597 54.14399616622926 29.592001945495596 53.159996166229256 29.520001945495597 51.863996166229256 29.736001945495598 50.59199616622926 30.4320019454956 49.43999616622926 31.5600019454956 48.69599616622926 32.6160019454956 47.95199616622926 34.2000019454956 47.78399616622926 35.4240019454956 47.63999616622926 36.840001945495594 47.78399616622926 38.13600194549559 48.479996166229256 39.345601945495595 49.367996166229254 40.178401945495594 50.42399616622925 40.629601945495594 51.50399616622925 40.70640194549559" fill="none" stroke-linecap="join" stroke-width="1" stroke="#000000"></path><path d="M61.31999998092651 29.52000003814697L63.52799998092651 40.78080003814697 63.815999980926506 40.78080003814697 70.0319999809265 29.52000003814697" fill="none" stroke-linecap="join" stroke-width="1" stroke="#000000"></path><path d="M72.28800761032105 34.79999813079834L80.61600761032105 34.79999813079834 80.83200761032104 33.45599813079834 80.76000761032104 31.70399813079834 79.92000761032104 30.35999813079834 78.86400761032104 29.591998130798338 77.28000761032104 29.51999813079834 75.62400761032103 29.975998130798338 74.11200761032103 31.103998130798338 73.27200761032103 32.23199813079834 72.45600761032102 33.671998130798336 72.07200761032102 35.18399813079834 72.07200761032102 37.007998130798335 72.45600761032102 38.66399813079833 73.58400761032102 40.02719813079833 74.78400761032103 40.629598130798335 76.36800761032103 40.78079813079834 77.73600761032102 40.403998130798335 79.24800761032103 39.72239813079833" fill="none" stroke-linecap="join" stroke-width="1" stroke="#000000"></path><path d="M84.31199998092653 40.70640003814697L86.27999998092653 29.592000038146963 85.67999998092654 33.000000038146965 86.59199998092654 31.632000038146963 87.86399998092655 30.26400003814696 89.06399998092655 29.736000038146962 90.21599998092655 29.592000038146963 90.88799998092655 29.664000038146963" fill="none" stroke-linecap="join" stroke-width="1" stroke="#000000"></path><path d="M95.42399998092652 24.000000038146972L92.71199998092652 39.648000038146975 92.71199998092652 40.178400038146975 92.85599998092653 40.47840003814697 93.23999998092653 40.706400038146974 93.67199998092653 40.706400038146974" fill="none" stroke-linecap="join" stroke-width="1" stroke="#000000"></path><path d="M100.27199998092652 30.888001945495603L101.99999998092652 29.976001945495604 103.43999998092652 29.592001945495603 104.87999998092651 29.448001945495605 105.86399998092651 29.832001945495605 106.60799998092651 30.648001945495608 106.9199999809265 31.872001945495605 106.70399998092651 33.5280019454956 105.7919999809265 38.5920019454956 105.47999998092651 40.6296019454956 105.7919999809265 38.5920019454956 104.6639999809265 39.2688019454956 103.4399999809265 40.027201945495605 102.1679999809265 40.555201945495604 100.7999999809265 40.780801945495604 99.6719999809265 40.4040019454956 98.9039999809265 39.799201945495604 98.3759999809265 38.8176019454956 98.61599998092649 37.36800194549561 99.43199998092649 36.24000194549561 100.79999998092649 35.256001945495605 102.09599998092649 34.8000019454956 103.58399998092649 34.3440019454956 104.95199998092649 34.1280019454956 105.8639999809265 34.056001945495595 106.53599998092649 34.056001945495595" fill="none" stroke-linecap="join" stroke-width="1" stroke="#000000"></path><path d="M111.45599998092652 29.664000038146973L113.95199998092652 41.084400038146974M119.92799998092651 29.736000038146972L112.89599998092652 43.05120003814697 112.15199998092652 44.184000038146976 111.16799998092652 45.02400003814698 110.18399998092653 45.55200003814698 108.59039998092653 45.55200003814698" fill="none" stroke-linecap="join" stroke-width="1" stroke="#000000"></path><path d="M131.3519999809265 40.78080003814697L133.3199999809265 29.664000038146973M133.4639999809265 25.056000038146973L133.2479999809265 26.256000038146972 134.44799998092648 26.256000038146972 134.6879999809265 25.056000038146973 133.4639999809265 25.056000038146973" fill="none" stroke-linecap="join" stroke-width="1" stroke="#000000"></path><path d="M137.3999999809265 40.780801945495604L139.3679999809265 29.592001945495603 138.9119999809265 32.30400194549561 140.1119999809265 31.24800194549561 141.26399998092649 30.36000194549561 142.0799999809265 29.90400194549561 143.30399998092648 29.59200194549561 144.04799998092648 29.52000194549561 145.17599998092646 29.832001945495612 145.70399998092645 30.264001945495615 146.15999998092644 31.032001945495615 146.39999998092645 32.08800194549561 144.81599998092645 40.78080194549561" fill="none" stroke-linecap="join" stroke-width="1" stroke="#000000"></path><path d="M160.00801523971558 34.79999813079834L168.33601523971558 34.79999813079834 168.5520152397156 33.45599813079834 168.48001523971558 31.70399813079834 167.64001523971558 30.35999813079834 166.58401523971557 29.591998130798338 165.00001523971557 29.51999813079834 163.34401523971556 29.975998130798338 161.83201523971556 31.103998130798338 160.99201523971556 32.23199813079834 160.17601523971555 33.671998130798336 159.79201523971557 35.18399813079834 159.79201523971557 37.007998130798335 160.17601523971555 38.66399813079833 161.30401523971557 40.02719813079833 162.50401523971556 40.629598130798335 164.08801523971556 40.78079813079834 165.45601523971555 40.403998130798335 166.96801523971556 39.72239813079833" fill="none" stroke-linecap="join" stroke-width="1" stroke="#000000"></path><path d="M170.06639998092652 40.933201945495604L179.73599998092652 29.520001945495604M172.55999998092653 29.520001945495604L178.22399998092652 40.933201945495604" fill="none" stroke-linecap="join" stroke-width="1" stroke="#000000"></path><path d="M182.3999999809265 40.78080003814697L184.3679999809265 29.664000038146973M184.5119999809265 25.056000038146973L184.2959999809265 26.256000038146972 185.49599998092648 26.256000038146972 185.7359999809265 25.056000038146973 184.5119999809265 25.056000038146973" fill="none" stroke-linecap="join" stroke-width="1" stroke="#000000"></path><path d="M187.31039998092652 39.26879813079834L188.5199999809265 40.178398130798335 189.8879999809265 40.629598130798335 191.0879999809265 40.78079813079834 192.6719999809265 40.25279813079834 194.0399999809265 39.34559813079834 194.5679999809265 37.991998130798336 194.49599998092648 36.623998130798334 193.36799998092647 35.495998130798334 191.61599998092646 34.72799813079833 190.03199998092646 33.983998130798334 189.19199998092645 32.99999813079833 189.19199998092645 31.87199813079833 189.81599998092645 30.791998130798333 191.15999998092644 29.735998130798333 192.74399998092645 29.51999813079833 194.18399998092644 29.831998130798333 195.33599998092643 30.575998130798332" fill="none" stroke-linecap="join" stroke-width="1" stroke="#000000"></path><path d="M202.94399998092652 40.25280003814697L202.05599998092652 40.629600038146975 200.9759999809265 40.629600038146975 199.9919999809265 40.32960003814698 199.3919999809265 39.345600038146976 199.5599999809265 37.68000003814698 200.9759999809265 29.90400003814698 198.7199999809265 29.90400003814698 204.5279999809265 29.90400003814698 200.9759999809265 29.90400003814698 201.5999999809265 26.496000038146978" fill="none" stroke-linecap="join" stroke-width="1" stroke="#000000"></path><path d="M206.7359999809265 40.78080003814697L208.70399998092648 29.664000038146973M208.8479999809265 25.056000038146973L208.63199998092648 26.256000038146972 209.83199998092647 26.256000038146972 210.07199998092648 25.056000038146973 208.8479999809265 25.056000038146973" fill="none" stroke-linecap="join" stroke-width="1" stroke="#000000"></path><path d="M212.7839999809265 40.780801945495604L214.75199998092648 29.592001945495603 214.2959999809265 32.30400194549561 215.49599998092648 31.24800194549561 216.64799998092647 30.36000194549561 217.46399998092647 29.90400194549561 218.68799998092646 29.59200194549561 219.43199998092646 29.52000194549561 220.55999998092648 29.832001945495612 221.08799998092647 30.264001945495615 221.54399998092646 31.032001945495615 221.78399998092647 32.08800194549561 220.19999998092646 40.78080194549561" fill="none" stroke-linecap="join" stroke-width="1" stroke="#000000"></path><path d="M227.3039999809265 40.17840194549561L225.9359999809265 41.23560194549561 225.0383999809265 42.52080194549561 224.6615999809265 43.87200194549561 225.4079999809265 45.02400194549561 227.0879999809265 45.76800194549561 229.0559999809265 46.008001945495614 230.99999998092648 45.55200194549561 232.96799998092646 44.328001945495615 233.87999998092647 43.200001945495615 234.02399998092648 41.916001945495616 233.5919999809265 40.706401945495614 231.98399998092648 40.25280194549561 227.37599998092648 40.25280194549561 226.55999998092648 39.57360194549561 226.24799998092647 38.52000194549561 226.63199998092645 37.536001945495606 228.21599998092645 36.09600194549561 228.95999998092645 36.62400194549561 230.18399998092644 36.84000194549561 231.83999998092645 36.31200194549561 233.13599998092644 35.25600194549561 233.95199998092644 33.98400194549561 234.19199998092645 32.47200194549561 233.87999998092644 31.10400194549561 233.49599998092646 30.50400194549561 232.60799998092645 29.83200194549561 236.23199998092645 29.83200194549561 232.53599998092645 29.83200194549561 231.45599998092644 29.59200194549561 229.72799998092643 29.73600194549561 228.35999998092643 30.72000194549561 227.37599998092642 32.08800194549561 227.0159999809264 33.60000194549561 227.15999998092641 34.800001945495616 227.6159999809264 35.56800194549562 228.1439999809264 36.16800194549562" fill="none" stroke-linecap="join" stroke-width="1" stroke="#000000"></path><path d="M247.7039999809265 40.706398130798334L249.5999999809265 29.831998130798333 247.8719999809265 29.831998130798333 252.4799999809265 29.831998130798333 249.5999999809265 29.831998130798333 250.1999999809265 26.495998130798334 250.58399998092648 25.367998130798334 251.49599998092648 24.215998130798333 252.7679999809265 23.783998130798334 253.75199998092648 23.927998130798333 254.3759999809265 24.215998130798333" fill="none" stroke-linecap="join" stroke-width="1" stroke="#000000"></path><path d="M254.4479999809265 40.78080003814697L256.41599998092653 29.664000038146973M256.55999998092653 25.056000038146973L256.3439999809265 26.256000038146972 257.5439999809265 26.256000038146972 257.7839999809265 25.056000038146973 256.55999998092653 25.056000038146973" fill="none" stroke-linecap="join" stroke-width="1" stroke="#000000"></path><path d="M263.5199999809265 24.000000038146972L260.8079999809265 39.648000038146975 260.8079999809265 40.178400038146975 260.95199998092653 40.47840003814697 261.33599998092654 40.706400038146974 261.76799998092656 40.706400038146974" fill="none" stroke-linecap="join" stroke-width="1" stroke="#000000"></path><path d="M266.99999998092653 34.79999813079834L275.3279999809265 34.79999813079834 275.5439999809265 33.45599813079834 275.4719999809265 31.70399813079834 274.63199998092654 30.35999813079834 273.57599998092655 29.591998130798338 271.99199998092655 29.51999813079834 270.33599998092654 29.975998130798338 268.82399998092654 31.103998130798338 267.98399998092657 32.23199813079834 267.1679999809266 33.671998130798336 266.7839999809266 35.18399813079834 266.7839999809266 37.007998130798335 267.1679999809266 38.66399813079833 268.2959999809266 40.02719813079833 269.49599998092657 40.629598130798335 271.0799999809266 40.78079813079834 272.44799998092657 40.403998130798335 273.95999998092657 39.72239813079833" fill="none" stroke-linecap="join" stroke-width="1" stroke="#000000"></path><path d="M277.8143999809265 39.26879813079834L279.02399998092653 40.178398130798335 280.3919999809265 40.629598130798335 281.5919999809265 40.78079813079834 283.1759999809265 40.25279813079834 284.5439999809265 39.34559813079834 285.07199998092653 37.991998130798336 284.99999998092653 36.623998130798334 283.87199998092655 35.495998130798334 282.11999998092654 34.72799813079833 280.53599998092653 33.983998130798334 279.69599998092656 32.99999813079833 279.69599998092656 31.87199813079833 280.3199999809266 30.791998130798333 281.6639999809266 29.735998130798333 283.2479999809266 29.51999813079833 284.6879999809266 29.831998130798333 285.83999998092656 30.575998130798332" fill="none" stroke-linecap="join" stroke-width="1" stroke="#000000"></path><path d="M289.6080304985046 40.55520003814697L288.6960304985046 40.55520003814697 288.91203049850463 39.34560003814697 289.8240304985046 39.34560003814697 289.9680304985046 40.70640003814697 289.6800304985046 41.841600038146964 289.0800304985046 42.823200038146965 288.3120304985046 43.42800003814696 287.5584304985046 44.040000038146964" fill="none" stroke-linecap="join" stroke-width="1" stroke="#000000"></path><path d="M4.991998788833618 64.62959240875244L7.031998788833619 64.32959240875245 9.21599878883362 63.04319240875245 10.96799878883362 61.00799240875244 12.09599878883362 58.34399240875244 12.551998788833622 55.87199240875244 12.551998788833622 53.83199240875244 12.095998788833622 52.15199240875244 11.111998788833622 50.56799240875244 9.599998788833622 49.58399240875244 8.087998788833621 49.27199240875244 6.575998788833621 49.51199240875244 4.82399878883362 50.11199240875244 3.0959987888336205 51.40799240875244 1.58399878883362 53.59199240875244 0.9119987888336203 55.31999240875244 0.38399878883362026 57.91199240875244 0.3119987888336202 59.87999240875244 0.7439987888336201 61.67999240875244 1.58399878883362 63.117592408752444 2.63999878883362 64.10159240875244 3.8639987888336202 64.55519240875243 4.9919987888336195 64.62959240875243" fill="none" stroke-linecap="join" stroke-width="1" stroke="#000000"></path><path d="M16.319999980926514 64.70640003814697L18.287999980926514 53.59200003814696 17.687999980926513 57.000000038146965 18.599999980926512 55.63200003814696 19.87199998092651 54.26400003814696 21.07199998092651 53.73600003814696 22.22399998092651 53.59200003814696 22.89599998092651 53.664000038146966" fill="none" stroke-linecap="join" stroke-width="1" stroke="#000000"></path><path d="M42.624003795623786 53.73599240875244L40.65600379562379 64.70639240875244 41.18400379562379 61.82399240875243 40.12800379562379 62.81759240875243 39.00000379562379 63.79919240875243 37.48800379562379 64.55519240875243 36.19200379562379 64.78079240875243 34.92000379562379 64.40399240875243 34.08000379562379 63.64799240875243 33.79200379562379 62.663992408752435 34.00800379562379 60.767992408752434 35.208003795623796 53.73599240875244" fill="none" stroke-linecap="join" stroke-width="1" stroke="#000000"></path><path d="M45.638399980926515 63.2687962234497L46.84799998092652 64.1783962234497 48.21599998092652 64.6295962234497 49.41599998092652 64.7807962234497 50.999999980926525 64.25279622344969 52.36799998092653 63.34559622344969 52.895999980926526 61.99199622344969 52.82399998092652 60.62399622344969 51.69599998092652 59.49599622344969 49.94399998092652 58.727996223449686 48.35999998092652 57.98399622344969 47.519999980926514 56.999996223449685 47.519999980926514 55.871996223449685 48.143999980926516 54.79199622344969 49.48799998092652 53.73599622344969 51.07199998092652 53.51999622344969 52.51199998092652 53.831996223449686 53.66399998092652 54.575996223449685" fill="none" stroke-linecap="join" stroke-width="1" stroke="#000000"></path><path d="M57.192011425018315 58.79999622344971L65.52001142501831 58.79999622344971 65.7360114250183 57.45599622344971 65.6640114250183 55.70399622344971 64.8240114250183 54.359996223449706 63.7680114250183 53.591996223449705 62.1840114250183 53.5199962234497 60.52801142501829 53.975996223449705 59.01601142501829 55.103996223449705 58.17601142501829 56.231996223449705 57.360011425018286 57.6719962234497 56.976011425018285 59.183996223449704 56.976011425018285 61.0079962234497 57.360011425018286 62.6639962234497 58.488011425018286 64.0271962234497 59.68801142501829 64.62959622344971 61.27201142501829 64.78079622344971 62.64001142501829 64.40399622344971 64.15201142501829 63.72239622344971" fill="none" stroke-linecap="join" stroke-width="1" stroke="#000000"></path><path d="M82.43999998092652 64.2527962234497L81.55199998092651 64.62959622344971 80.47199998092651 64.62959622344971 79.48799998092652 64.32959622344971 78.88799998092652 63.34559622344972 79.05599998092653 61.67999622344972 80.47199998092653 53.903996223449724 78.21599998092653 53.903996223449724 84.02399998092653 53.903996223449724 80.47199998092653 53.903996223449724 81.09599998092652 50.49599622344972" fill="none" stroke-linecap="join" stroke-width="1" stroke="#000000"></path><path d="M86.23199998092653 64.62960003814698L89.25599998092653 48.00000003814698 87.74399998092653 56.40000003814698 89.01599998092654 55.17600003814698 90.16799998092654 54.26400003814698 91.75199998092654 53.66400003814698 93.19199998092654 53.52000003814698 94.70399998092654 54.43200003814698 95.15999998092654 55.48800003814698 95.06399998092654 57.21600003814698 93.79199998092653 64.70640003814698" fill="none" stroke-linecap="join" stroke-width="1" stroke="#000000"></path><path d="M99.52799998092654 64.78080003814696L101.49599998092654 53.664000038146966M101.63999998092655 49.05600003814696L101.42399998092655 50.256000038146965 102.62399998092656 50.256000038146965 102.86399998092655 49.05600003814696 101.63999998092655 49.05600003814696" fill="none" stroke-linecap="join" stroke-width="1" stroke="#000000"></path><path d="M104.43839998092653 63.2687962234497L105.64799998092653 64.1783962234497 107.01599998092652 64.6295962234497 108.21599998092653 64.7807962234497 109.79999998092653 64.25279622344969 111.16799998092652 63.34559622344969 111.69599998092653 61.99199622344969 111.62399998092653 60.62399622344969 110.49599998092653 59.49599622344969 108.74399998092653 58.727996223449686 107.15999998092653 57.98399622344969 106.31999998092653 56.999996223449685 106.31999998092653 55.871996223449685 106.94399998092652 54.79199622344969 108.28799998092651 53.73599622344969 109.87199998092652 53.51999622344969 111.31199998092652 53.831996223449686 112.46399998092652 54.575996223449685" fill="none" stroke-linecap="join" stroke-width="1" stroke="#000000"></path><path d="M135.43199998092655 48.00000003814697L132.40799998092655 64.62960003814698 132.86399998092654 62.35200003814697 131.56799998092654 63.422400038146975 129.98399998092654 64.40400003814698 128.47199998092654 64.78080003814698 127.27199998092655 64.55520003814698 126.19199998092654 64.02720003814697 125.13599998092653 62.73600003814697 124.77599998092651 61.00800003814697 124.99199998092652 58.896000038146965 125.97599998092653 56.40000003814696 127.48799998092653 54.50400003814696 129.52799998092652 53.59200003814696 131.03999998092652 53.448000038146965 132.40799998092652 53.976000038146964 133.31999998092653 54.576000038146965 134.06399998092652 55.488000038146964" fill="none" stroke-linecap="join" stroke-width="1" stroke="#000000"></path><path d="M138.67199998092653 58.79999622344971L146.99999998092653 58.79999622344971 147.21599998092654 57.45599622344971 147.14399998092654 55.70399622344971 146.30399998092653 54.359996223449706 145.24799998092652 53.591996223449705 143.66399998092652 53.5199962234497 142.0079999809265 53.975996223449705 140.4959999809265 55.103996223449705 139.6559999809265 56.231996223449705 138.8399999809265 57.6719962234497 138.45599998092652 59.183996223449704 138.45599998092652 61.0079962234497 138.8399999809265 62.6639962234497 139.9679999809265 64.0271962234497 141.16799998092648 64.62959622344971 142.75199998092648 64.78079622344971 144.11999998092648 64.40399622344971 145.63199998092648 63.72239622344971" fill="none" stroke-linecap="join" stroke-width="1" stroke="#000000"></path><path d="M150.83999998092654 64.70640003814697L152.73599998092652 53.832000038146965 151.0079999809265 53.832000038146965 155.61599998092652 53.832000038146965 152.73599998092652 53.832000038146965 153.33599998092652 50.49600003814697 153.7199999809265 49.36800003814697 154.6319999809265 48.216000038146966 155.9039999809265 47.784000038146964 156.8879999809265 47.92800003814696 157.5119999809265 48.21600003814696" fill="none" stroke-linecap="join" stroke-width="1" stroke="#000000"></path><path d="M159.09598472213747 54.888003852844236L160.82398472213748 53.97600385284424 162.26398472213748 53.592003852844236 163.70398472213748 53.44800385284424 164.6879847221375 53.83200385284424 165.43198472213749 54.64800385284424 165.7439847221375 55.87200385284424 165.5279847221375 57.528003852844236 164.61598472213748 62.59200385284424 164.30398472213747 64.62960385284424 164.61598472213748 62.59200385284424 163.48798472213747 63.26880385284424 162.26398472213748 64.02720385284424 160.9919847221375 64.55520385284424 159.6239847221375 64.78080385284424 158.4959847221375 64.40400385284424 157.7279847221375 63.799203852844244 157.19998472213751 62.81760385284424 157.43998472213752 61.36800385284424 158.25598472213753 60.24000385284424 159.62398472213752 59.25600385284424 160.9199847221375 58.800003852844235 162.4079847221375 58.34400385284423 163.7759847221375 58.12800385284423 164.68798472213751 58.05600385284423 165.3599847221375 58.05600385284423" fill="none" stroke-linecap="join" stroke-width="1" stroke="#000000"></path><path d="M179.20799998092653 53.73599240875244L177.23999998092654 64.70639240875244 177.76799998092653 61.82399240875243 176.71199998092652 62.81759240875243 175.58399998092654 63.79919240875243 174.07199998092653 64.55519240875243 172.77599998092654 64.78079240875243 171.50399998092655 64.40399240875243 170.66399998092655 63.64799240875243 170.37599998092654 62.663992408752435 170.59199998092654 60.767992408752434 171.79199998092653 53.73599240875244" fill="none" stroke-linecap="join" stroke-width="1" stroke="#000000"></path><path d="M186.38399998092652 48.00000003814697L183.67199998092653 63.648000038146975 183.67199998092653 64.17840003814698 183.81599998092653 64.47840003814697 184.19999998092652 64.70640003814697 184.6319999809265 64.70640003814697" fill="none" stroke-linecap="join" stroke-width="1" stroke="#000000"></path><path d="M193.94399998092655 64.2527962234497L193.05599998092654 64.62959622344971 191.97599998092653 64.62959622344971 190.99199998092652 64.32959622344971 190.39199998092653 63.34559622344972 190.55999998092653 61.67999622344972 191.97599998092653 53.903996223449724 189.71999998092653 53.903996223449724 195.52799998092652 53.903996223449724 191.97599998092653 53.903996223449724 192.59999998092653 50.49599622344972" fill="none" stroke-linecap="join" stroke-width="1" stroke="#000000"></path><path d="M206.03999998092652 62.59200003814698L207.1919999809265 63.648000038146975 208.24799998092652 64.25280003814697 209.68799998092652 64.55520003814698 211.41599998092653 64.62960003814698 213.45599998092652 63.873600038146975 214.89599998092652 62.73600003814697 215.63999998092652 61.22400003814697 215.80799998092652 59.88000003814697 215.27999998092653 58.512000038146965 213.69599998092653 57.384000038146965 210.88799998092654 56.01600003814696 209.30399998092653 54.88800003814696 208.53599998092653 53.664000038146966 208.84799998092655 52.152000038146966 209.75999998092655 50.56800003814696 211.55999998092656 49.512000038146965 213.31199998092657 49.27200003814696 214.89599998092658 49.44000003814696 215.9519999809266 50.040000038146964 216.9359999809266 50.88000003814697" fill="none" stroke-linecap="join" stroke-width="1" stroke="#000000"></path><path d="M220.63199998092654 49.44000003814697L222.91199998092654 64.70640003814697 230.75999998092655 49.512000038146965" fill="none" stroke-linecap="join" stroke-width="1" stroke="#000000"></path><path d="M238.7759847221375 57.59999240875244L242.9279847221375 57.59999240875244 241.9439847221375 63.194392408752435 240.8159847221375 63.87359240875243 238.6319847221375 64.62959240875243 237.0239847221375 64.70639240875244 235.6079847221375 64.40399240875243 234.3119847221375 63.64799240875243 233.03998472213752 61.82399240875243 232.41598472213752 59.56799240875243 232.65598472213753 56.92799240875243 233.39998472213753 54.35999240875243 234.83998472213753 52.07999240875243 236.66398472213754 50.35199240875243 238.46398472213755 49.58399240875243 240.35998472213754 49.27199240875243 242.25598472213753 49.58399240875243 243.31198472213754 50.25599240875243 243.98398472213754 50.951992408752425" fill="none" stroke-linecap="join" stroke-width="1" stroke="#000000"></path><path d="M257.7599999809266 54.888003852844236L259.4879999809266 53.97600385284424 260.9279999809266 53.592003852844236 262.3679999809266 53.44800385284424 263.35199998092656 53.83200385284424 264.0959999809266 54.64800385284424 264.4079999809266 55.87200385284424 264.1919999809266 57.528003852844236 263.2799999809266 62.59200385284424 262.9679999809266 64.62960385284424 263.2799999809266 62.59200385284424 262.15199998092663 63.26880385284424 260.92799998092664 64.02720385284424 259.65599998092665 64.55520385284424 258.28799998092666 64.78080385284424 257.15999998092667 64.40400385284424 256.3919999809267 63.799203852844244 255.86399998092668 62.81760385284424 256.1039999809267 61.36800385284424 256.91999998092666 60.24000385284424 258.28799998092666 59.25600385284424 259.58399998092665 58.800003852844235 261.07199998092665 58.34400385284423 262.43999998092664 58.12800385284423 263.3519999809266 58.05600385284423 264.02399998092665 58.05600385284423" fill="none" stroke-linecap="join" stroke-width="1" stroke="#000000"></path><path d="M267.5903999809266 63.2687962234497L268.7999999809266 64.1783962234497 270.1679999809266 64.6295962234497 271.3679999809266 64.7807962234497 272.9519999809266 64.25279622344969 274.3199999809266 63.34559622344969 274.8479999809266 61.99199622344969 274.7759999809266 60.62399622344969 273.6479999809266 59.49599622344969 271.8959999809266 58.727996223449686 270.3119999809266 57.98399622344969 269.4719999809266 56.999996223449685 269.4719999809266 55.871996223449685 270.09599998092665 54.79199622344969 271.43999998092664 53.73599622344969 273.02399998092665 53.51999622344969 274.46399998092664 53.831996223449686 275.61599998092663 54.575996223449685" fill="none" stroke-linecap="join" stroke-width="1" stroke="#000000"></path><path d="M288.2879999809266 53.66400003814697L290.7839999809266 65.08440003814698M296.7599999809266 53.73600003814698L289.7279999809266 67.05120003814699 288.98399998092657 68.18400003814699 287.9999999809266 69.024000038147 287.0159999809266 69.552000038147 285.4223999809266 69.552000038147" fill="none" stroke-linecap="join" stroke-width="1" stroke="#000000"></path><path d="M302.97596946334846 64.70640385284423L303.04796946334847 64.70640385284423 304.63196946334847 64.32960385284423 306.2159694633485 63.345603852844235 307.34396946334846 61.824003852844235 308.11196946334843 60.16800385284424 308.39996946334844 58.58400385284423 308.39996946334844 57.144003852844236 308.18396946334843 55.87200385284424 307.6559694633484 54.888003852844236 306.67196946334843 53.97600385284424 305.61596946334845 53.592003852844236 304.63196946334847 53.52000385284423 303.3359694633485 53.736003852844235 302.0639694633485 54.43200385284423 300.9119694633485 55.56000385284423 300.16796946334847 56.61600385284423 299.42396946334844 58.20000385284423 299.25596946334844 59.42400385284423 299.11196946334843 60.84000385284423 299.25596946334844 62.136003852844226 299.95196946334846 63.34560385284422 300.83996946334844 64.17840385284423 301.8959694633484 64.62960385284423 302.9759694633484 64.70640385284423" fill="none" stroke-linecap="join" stroke-width="1" stroke="#000000"></path><path d="M321.72006101608287 53.73599240875244L319.75206101608285 64.70639240875244 320.28006101608287 61.82399240875243 319.2240610160829 62.81759240875243 318.0960610160829 63.79919240875243 316.5840610160829 64.55519240875243 315.2880610160829 64.78079240875243 314.0160610160829 64.40399240875243 313.17606101608294 63.64799240875243 312.88806101608293 62.663992408752435 313.10406101608294 60.767992408752434 314.3040610160829 53.73599240875244" fill="none" stroke-linecap="join" stroke-width="1" stroke="#000000"></path><path d="M325.9439999809266 64.70640003814697L327.9119999809266 53.59200003814696 327.3119999809266 57.000000038146965 328.2239999809266 55.63200003814696 329.49599998092657 54.26400003814696 330.69599998092656 53.73600003814696 331.84799998092655 53.59200003814696 332.51999998092657 53.664000038146966" fill="none" stroke-linecap="join" stroke-width="1" stroke="#000000"></path><path d="M350.20803049850474 63.422407667541506L348.76803049850474 64.32960766754151 346.96803049850473 64.70640766754151 345.3600304985047 64.47840766754152 343.8480304985047 63.345607667541515 343.1040304985047 61.75200766754151 343.0320304985047 59.88000766754151 343.4160304985047 57.912007667541516 344.3040304985047 56.08800766754152 345.7440304985047 54.64800766754152 347.3280304985047 53.83200766754152 349.0080304985047 53.592007667541516 350.2800304985047 53.83200766754152 351.19203049850466 54.26400766754152 351.4080304985047 54.72000766754152" fill="none" stroke-linecap="join" stroke-width="1" stroke="#000000"></path><path d="M355.9439999809266 54.888003852844236L357.6719999809266 53.97600385284424 359.1119999809266 53.592003852844236 360.5519999809266 53.44800385284424 361.5359999809266 53.83200385284424 362.2799999809266 54.64800385284424 362.59199998092663 55.87200385284424 362.3759999809266 57.528003852844236 361.46399998092664 62.59200385284424 361.15199998092663 64.62960385284424 361.46399998092664 62.59200385284424 360.33599998092666 63.26880385284424 359.11199998092667 64.02720385284424 357.8399999809267 64.55520385284424 356.4719999809267 64.78080385284424 355.3439999809267 64.40400385284424 354.5759999809267 63.799203852844244 354.0479999809267 62.81760385284424 354.2879999809267 61.36800385284424 355.1039999809267 60.24000385284424 356.4719999809267 59.25600385284424 357.7679999809267 58.800003852844235 359.2559999809267 58.34400385284423 360.62399998092667 58.12800385284423 361.53599998092665 58.05600385284423 362.2079999809267 58.05600385284423" fill="none" stroke-linecap="join" stroke-width="1" stroke="#000000"></path><path d="M366.9119999809266 64.78080003814696L368.87999998092664 53.59200003814696 368.4239999809266 56.30400003814697 369.6239999809266 55.24800003814697 370.7759999809266 54.36000003814697 371.5919999809266 53.90400003814697 372.81599998092656 53.59200003814697 373.5599999809266 53.52000003814697 374.6879999809266 53.832000038146965 375.2159999809266 54.26400003814697 375.6719999809266 55.03200003814697 375.9119999809266 56.088000038146966 374.3279999809266 64.78080003814696" fill="none" stroke-linecap="join" stroke-width="1" stroke="#000000"></path><path d="M380.5199999809266 53.520000038146975L382.72799998092665 64.78080003814698 383.01599998092667 64.78080003814698 389.2319999809267 53.520000038146975" fill="none" stroke-linecap="join" stroke-width="1" stroke="#000000"></path><path d="M392.85599998092664 54.888003852844236L394.58399998092665 53.97600385284424 396.02399998092665 53.592003852844236 397.46399998092664 53.44800385284424 398.4479999809266 53.83200385284424 399.19199998092665 54.64800385284424 399.50399998092666 55.87200385284424 399.28799998092666 57.528003852844236 398.3759999809267 62.59200385284424 398.06399998092667 64.62960385284424 398.3759999809267 62.59200385284424 397.2479999809267 63.26880385284424 396.0239999809267 64.02720385284424 394.7519999809267 64.55520385284424 393.3839999809267 64.78080385284424 392.25599998092673 64.40400385284424 391.48799998092676 63.799203852844244 390.95999998092674 62.81760385284424 391.19999998092675 61.36800385284424 392.0159999809267 60.24000385284424 393.3839999809267 59.25600385284424 394.6799999809267 58.800003852844235 396.1679999809267 58.34400385284423 397.5359999809267 58.12800385284423 398.4479999809267 58.05600385284423 399.1199999809267 58.05600385284423" fill="none" stroke-linecap="join" stroke-width="1" stroke="#000000"></path><path d="M402.68639998092664 63.2687962234497L403.89599998092666 64.1783962234497 405.26399998092666 64.6295962234497 406.46399998092664 64.7807962234497 408.04799998092665 64.25279622344969 409.41599998092664 63.34559622344969 409.94399998092666 61.99199622344969 409.87199998092666 60.62399622344969 408.7439999809267 59.49599622344969 406.99199998092666 58.727996223449686 405.40799998092666 57.98399622344969 404.5679999809267 56.999996223449685 404.5679999809267 55.871996223449685 405.1919999809267 54.79199622344969 406.5359999809267 53.73599622344969 408.1199999809267 53.51999622344969 409.5599999809267 53.831996223449686 410.7119999809267 54.575996223449685" fill="none" stroke-linecap="join" stroke-width="1" stroke="#000000"></path><path d="M413.6399694633485 63.422400038146975L413.4959694633485 64.62960003814698 414.6239694633485 64.62960003814698 414.8399694633485 63.422400038146975 413.6399694633485 63.422400038146975" fill="none" stroke-linecap="join" stroke-width="1" stroke="#000000"></path><path d="M9.743999265670777 86.8176076675415L7.943999265670776 88.02720766754149 5.735999265670776 88.7808076675415 3.6239992656707756 88.47840766754149 1.8959992656707758 87.42240766754149 0.6719992656707756 85.60800766754149 0.21599926567077565 83.71200766754149 0.5279992656707755 80.85600766754149 1.1999992656707752 78.19200766754149 2.5679992656707755 76.00800766754149 4.391999265670775 74.35200766754149 6.263999265670776 73.51200766754148 8.303999265670775 73.36800766754148 10.055999265670776 73.72800766754148 11.039999265670776 74.49600766754148 11.327999265670776 74.95200766754148" fill="none" stroke-linecap="join" stroke-width="1" stroke="#000000"></path><path d="M14.135999980926513 88.62960003814698L17.159999980926514 72.00000003814698 15.647999980926514 80.40000003814698 16.919999980926512 79.17600003814698 18.071999980926513 78.26400003814697 19.655999980926513 77.66400003814698 21.095999980926514 77.52000003814697 22.607999980926515 78.43200003814698 23.063999980926514 79.48800003814698 22.967999980926514 81.21600003814697 21.695999980926516 88.70640003814697" fill="none" stroke-linecap="join" stroke-width="1" stroke="#000000"></path><path d="M28.94400379562378 78.88800003814697L30.67200379562378 77.97600003814696 32.11200379562378 77.59200003814696 33.552003795623776 77.44800003814696 34.53600379562378 77.83200003814696 35.28000379562378 78.64800003814696 35.592003795623775 79.87200003814696 35.376003795623774 81.52800003814697 34.464003795623775 86.59200003814698 34.15200379562378 88.62960003814698 34.464003795623775 86.59200003814698 33.336003795623775 87.26880003814698 32.11200379562378 88.02720003814697 30.84000379562378 88.55520003814698 29.472003795623777 88.78080003814698 28.344003795623777 88.40400003814698 27.576003795623777 87.79920003814698 27.048003795623778 86.81760003814698 27.288003795623776 85.36800003814697 28.104003795623775 84.24000003814697 29.472003795623777 83.25600003814698 30.768003795623777 82.80000003814698 32.256003795623776 82.34400003814697 33.62400379562378 82.12800003814698 34.53600379562378 82.05600003814698 35.208003795623775 82.05600003814698" fill="none" stroke-linecap="join" stroke-width="1" stroke="#000000"></path><path d="M39.91199998092652 88.7808076675415L41.87999998092651 77.5920076675415 41.42399998092651 80.3040076675415 42.62399998092651 79.2480076675415 43.775999980926514 78.3600076675415 44.591999980926516 77.90400766754149 45.81599998092651 77.5920076675415 46.55999998092651 77.52000766754149 47.68799998092651 77.83200766754149 48.21599998092651 78.26400766754149 48.671999980926515 79.03200766754149 48.91199998092652 80.08800766754149 47.32799998092651 88.7808076675415" fill="none" stroke-linecap="join" stroke-width="1" stroke="#000000"></path><path d="M54.43199998092652 88.17840003814698L53.06399998092652 89.23560003814697 52.16639998092652 90.52080003814697 51.78959998092652 91.87200003814698 52.53599998092652 93.02400003814698 54.21599998092652 93.76800003814698 56.183999980926515 94.00800003814697 58.12799998092652 93.55200003814697 60.09599998092652 92.32800003814697 61.00799998092653 91.20000003814697 61.15199998092653 89.91600003814696 60.71999998092653 88.70640003814697 59.111999980926534 88.25280003814697 54.50399998092654 88.25280003814697 53.687999980926534 87.57360003814698 53.37599998092654 86.52000003814697 53.75999998092654 85.53600003814698 55.34399998092654 84.09600003814698 56.08799998092654 84.62400003814699 57.31199998092654 84.84000003814698 58.967999980926535 84.31200003814698 60.263999980926535 83.25600003814698 61.07999998092653 81.98400003814697 61.319999980926525 80.47200003814697 61.00799998092653 79.10400003814698 60.62399998092653 78.50400003814698 59.73599998092653 77.83200003814699 63.35999998092653 77.83200003814699 59.66399998092653 77.83200003814699 58.583999980926535 77.59200003814699 56.85599998092653 77.736000038147 55.48799998092653 78.72000003814699 54.50399998092653 80.08800003814699 54.14399998092653 81.60000003814699 54.28799998092653 82.80000003814699 54.74399998092653 83.56800003814699 55.27199998092653 84.16800003814699" fill="none" stroke-linecap="join" stroke-width="1" stroke="#000000"></path><path d="M65.68800761032104 82.80000003814698L74.01600761032104 82.80000003814698 74.23200761032103 81.45600003814698 74.16000761032103 79.70400003814699 73.32000761032103 78.36000003814699 72.26400761032103 77.59200003814699 70.68000761032103 77.52000003814699 69.02400761032102 77.97600003814699 67.51200761032102 79.10400003814699 66.67200761032102 80.23200003814699 65.85600761032102 81.67200003814699 65.47200761032101 83.18400003814699 65.47200761032101 85.00800003814699 65.85600761032102 86.664000038147 66.98400761032102 88.027200038147 68.18400761032102 88.629600038147 69.76800761032102 88.780800038147 71.13600761032102 88.404000038147 72.64800761032102 87.722400038147" fill="none" stroke-linecap="join" stroke-width="1" stroke="#000000"></path><path d="M86.92799998092651 88.7064076675415L88.82399998092652 77.83200766754149 87.09599998092652 77.83200766754149 91.70399998092653 77.83200766754149 88.82399998092653 77.83200766754149 89.42399998092652 74.49600766754149 89.80799998092652 73.36800766754149 90.71999998092653 72.21600766754149 91.99199998092654 71.78400766754149 92.97599998092653 71.9280076675415 93.59999998092653 72.21600766754149" fill="none" stroke-linecap="join" stroke-width="1" stroke="#000000"></path><path d="M97.53598472213744 88.70639240875244L97.60798472213745 88.70639240875244 99.19198472213745 88.32959240875243 100.77598472213745 87.34559240875244 101.90398472213745 85.82399240875243 102.67198472213745 84.16799240875243 102.95998472213745 82.58399240875242 102.95998472213745 81.14399240875242 102.74398472213745 79.87199240875242 102.21598472213745 78.88799240875242 101.23198472213745 77.97599240875242 100.17598472213746 77.59199240875242 99.19198472213746 77.51999240875242 97.89598472213746 77.73599240875241 96.62398472213745 78.43199240875241 95.47198472213745 79.55999240875241 94.72798472213745 80.6159924087524 93.98398472213745 82.19999240875241 93.81598472213744 83.42399240875241 93.67198472213744 84.83999240875241 93.81598472213744 86.13599240875241 94.51198472213744 87.34559240875241 95.39998472213745 88.17839240875242 96.45598472213744 88.62959240875242 97.53598472213744 88.70639240875242" fill="none" stroke-linecap="join" stroke-width="1" stroke="#000000"></path><path d="M107.13599998092651 88.7808076675415L109.10399998092652 77.5920076675415 108.64799998092651 80.3040076675415 109.84799998092652 79.2480076675415 110.99999998092652 78.3600076675415 111.81599998092652 77.90400766754149 113.03999998092652 77.5920076675415 113.78399998092652 77.52000766754149 114.91199998092652 77.83200766754149 115.43999998092653 78.26400766754149 115.89599998092653 79.03200766754149 116.13599998092653 80.08800766754149 114.55199998092652 88.7808076675415" fill="none" stroke-linecap="join" stroke-width="1" stroke="#000000"></path><path d="M124.75199235153198 88.25279240875244L123.86399235153198 88.62959240875244 122.78399235153198 88.62959240875244 121.79999235153198 88.32959240875245 121.19999235153199 87.34559240875245 121.367992351532 85.67999240875245 122.78399235153199 77.90399240875246 120.52799235153199 77.90399240875246 126.33599235153198 77.90399240875246 122.78399235153198 77.90399240875246 123.40799235153197 74.49599240875246" fill="none" stroke-linecap="join" stroke-width="1" stroke="#000000"></path><path d="M136.4783999809265 87.26880003814696L137.6879999809265 88.17840003814696 139.0559999809265 88.62960003814696 140.25599998092648 88.78080003814696 141.83999998092648 88.25280003814696 143.20799998092647 87.34560003814696 143.73599998092647 85.99200003814695 143.66399998092646 84.62400003814696 142.53599998092648 83.49600003814696 140.78399998092647 82.72800003814696 139.19999998092646 81.98400003814696 138.35999998092646 81.00000003814696 138.35999998092646 79.87200003814696 138.98399998092646 78.79200003814697 140.32799998092645 77.73600003814697 141.91199998092645 77.52000003814697 143.35199998092645 77.83200003814697 144.50399998092644 78.57600003814697" fill="none" stroke-linecap="join" stroke-width="1" stroke="#000000"></path><path d="M147.88799998092648 88.78080003814696L149.85599998092647 77.66400003814697M149.99999998092648 73.05600003814696L149.78399998092647 74.25600003814696 150.98399998092646 74.25600003814696 151.22399998092646 73.05600003814696 149.99999998092648 73.05600003814696" fill="none" stroke-linecap="join" stroke-width="1" stroke="#000000"></path><path d="M154.68001523971554 77.97600003814696L161.42401523971554 77.97600003814696 152.42161523971555 88.40400003814696 160.12801523971555 88.40400003814696" fill="none" stroke-linecap="join" stroke-width="1" stroke="#000000"></path><path d="M164.27999998092648 82.80000003814698L172.60799998092648 82.80000003814698 172.8239999809265 81.45600003814698 172.75199998092648 79.70400003814699 171.91199998092648 78.36000003814699 170.85599998092647 77.59200003814699 169.27199998092647 77.52000003814699 167.61599998092646 77.97600003814699 166.10399998092646 79.10400003814699 165.26399998092646 80.23200003814699 164.44799998092645 81.67200003814699 164.06399998092647 83.18400003814699 164.06399998092647 85.00800003814699 164.44799998092645 86.664000038147 165.57599998092644 88.027200038147 166.77599998092643 88.629600038147 168.35999998092643 88.780800038147 169.72799998092643 88.404000038147 171.23999998092643 87.722400038147" fill="none" stroke-linecap="join" stroke-width="1" stroke="#000000"></path><path d="M176.61598472213743 88.55520003814698L175.70398472213742 88.55520003814698 175.91998472213743 87.34560003814698 176.83198472213743 87.34560003814698 176.97598472213744 88.70640003814698 176.68798472213743 89.84160003814698 176.08798472213743 90.82320003814698 175.31998472213743 91.42800003814698 174.56638472213743 92.04000003814697" fill="none" stroke-linecap="join" stroke-width="1" stroke="#000000"></path><path d="M191.49599998092648 88.7064076675415L193.39199998092647 77.83200766754149 191.66399998092646 77.83200766754149 196.27199998092647 77.83200766754149 193.39199998092647 77.83200766754149 193.99199998092647 74.49600766754149 194.37599998092645 73.36800766754149 195.28799998092646 72.21600766754149 196.55999998092645 71.78400766754149 197.54399998092646 71.9280076675415 198.16799998092645 72.21600766754149" fill="none" stroke-linecap="join" stroke-width="1" stroke="#000000"></path><path d="M202.10401523971555 88.70639240875244L202.17601523971555 88.70639240875244 203.76001523971556 88.32959240875243 205.34401523971556 87.34559240875244 206.47201523971557 85.82399240875243 207.24001523971558 84.16799240875243 207.5280152397156 82.58399240875242 207.5280152397156 81.14399240875242 207.31201523971558 79.87199240875242 206.7840152397156 78.88799240875242 205.80001523971558 77.97599240875242 204.74401523971557 77.59199240875242 203.76001523971556 77.51999240875242 202.46401523971556 77.73599240875241 201.19201523971557 78.43199240875241 200.0400152397156 79.55999240875241 199.2960152397156 80.6159924087524 198.5520152397156 82.19999240875241 198.38401523971558 83.42399240875241 198.24001523971558 84.83999240875241 198.38401523971558 86.13599240875241 199.08001523971558 87.34559240875241 199.96801523971558 88.17839240875242 201.0240152397156 88.62959240875242 202.1040152397156 88.70639240875242" fill="none" stroke-linecap="join" stroke-width="1" stroke="#000000"></path><path d="M211.70399998092648 88.7808076675415L213.67199998092647 77.5920076675415 213.21599998092648 80.3040076675415 214.41599998092647 79.2480076675415 215.56799998092646 78.3600076675415 216.38399998092646 77.90400766754149 217.60799998092645 77.5920076675415 218.35199998092645 77.52000766754149 219.47999998092644 77.83200766754149 220.00799998092643 78.26400766754149 220.46399998092642 79.03200766754149 220.70399998092643 80.08800766754149 219.11999998092642 88.7808076675415" fill="none" stroke-linecap="join" stroke-width="1" stroke="#000000"></path><path d="M229.3199999809265 88.25279240875244L228.4319999809265 88.62959240875244 227.35199998092648 88.62959240875244 226.36799998092647 88.32959240875245 225.76799998092648 87.34559240875245 225.93599998092648 85.67999240875245 227.35199998092648 77.90399240875246 225.09599998092648 77.90399240875246 230.90399998092647 77.90399240875246 227.35199998092648 77.90399240875246 227.97599998092647 74.49599240875246" fill="none" stroke-linecap="join" stroke-width="1" stroke="#000000"></path><path d="M241.04639998092648 87.26880003814696L242.25599998092648 88.17840003814696 243.62399998092647 88.62960003814696 244.82399998092646 88.78080003814696 246.40799998092646 88.25280003814696 247.77599998092646 87.34560003814696 248.30399998092645 85.99200003814695 248.23199998092645 84.62400003814696 247.10399998092646 83.49600003814696 245.35199998092645 82.72800003814696 243.76799998092645 81.98400003814696 242.92799998092644 81.00000003814696 242.92799998092644 79.87200003814696 243.55199998092644 78.79200003814697 244.89599998092643 77.73600003814697 246.47999998092644 77.52000003814697 247.91999998092643 77.83200003814697 249.07199998092642 78.57600003814697" fill="none" stroke-linecap="join" stroke-width="1" stroke="#000000"></path><path d="M256.6799847221374 88.25279240875244L255.79198472213744 88.62959240875244 254.71198472213746 88.62959240875244 253.72798472213748 88.32959240875245 253.12798472213746 87.34559240875245 253.29598472213746 85.67999240875245 254.71198472213746 77.90399240875246 252.45598472213746 77.90399240875246 258.2639847221375 77.90399240875246 254.71198472213746 77.90399240875246 255.33598472213748 74.49599240875246" fill="none" stroke-linecap="join" stroke-width="1" stroke="#000000"></path><path d="M260.6879999809265 77.66400003814697L263.1839999809265 89.08440003814697M269.1599999809265 77.73600003814697L262.1279999809265 91.05120003814697 261.3839999809265 92.18400003814698 260.3999999809265 93.02400003814698 259.41599998092653 93.55200003814699 257.82239998092655 93.55200003814699" fill="none" stroke-linecap="join" stroke-width="1" stroke="#000000"></path><path d="M274.53599998092653 72.00000003814696L271.82399998092654 87.64800003814696 271.82399998092654 88.17840003814696 271.96799998092655 88.47840003814696 272.35199998092656 88.70640003814695 272.7839999809266 88.70640003814695" fill="none" stroke-linecap="join" stroke-width="1" stroke="#000000"></path><path d="M278.01599998092655 82.80000003814698L286.3439999809265 82.80000003814698 286.55999998092653 81.45600003814698 286.48799998092653 79.70400003814699 285.64799998092656 78.36000003814699 284.5919999809266 77.59200003814699 283.00799998092657 77.52000003814699 281.35199998092656 77.97600003814699 279.83999998092656 79.10400003814699 278.9999999809266 80.23200003814699 278.1839999809266 81.67200003814699 277.7999999809266 83.18400003814699 277.7999999809266 85.00800003814699 278.1839999809266 86.664000038147 279.3119999809266 88.027200038147 280.5119999809266 88.629600038147 282.0959999809266 88.780800038147 283.4639999809266 88.404000038147 284.9759999809266 87.722400038147" fill="none" stroke-linecap="join" stroke-width="1" stroke="#000000"></path><path d="M300.5520304985047 78.88800003814697L302.2800304985047 77.97600003814696 303.7200304985047 77.59200003814696 305.1600304985047 77.44800003814696 306.14403049850466 77.83200003814696 306.8880304985047 78.64800003814696 307.2000304985047 79.87200003814696 306.9840304985047 81.52800003814697 306.0720304985047 86.59200003814698 305.7600304985047 88.62960003814698 306.0720304985047 86.59200003814698 304.94403049850473 87.26880003814698 303.72003049850474 88.02720003814697 302.44803049850475 88.55520003814698 301.08003049850475 88.78080003814698 299.95203049850477 88.40400003814698 299.1840304985048 87.79920003814698 298.6560304985048 86.81760003814698 298.8960304985048 85.36800003814697 299.71203049850476 84.24000003814697 301.08003049850475 83.25600003814698 302.37603049850475 82.80000003814698 303.86403049850475 82.34400003814697 305.23203049850474 82.12800003814698 306.1440304985047 82.05600003814698 306.81603049850474 82.05600003814698" fill="none" stroke-linecap="join" stroke-width="1" stroke="#000000"></path><path d="M311.51999998092657 88.7808076675415L313.4879999809266 77.5920076675415 313.03199998092657 80.3040076675415 314.23199998092656 79.2480076675415 315.38399998092655 78.3600076675415 316.1999999809265 77.90400766754149 317.4239999809265 77.5920076675415 318.16799998092654 77.52000766754149 319.2959999809265 77.83200766754149 319.82399998092654 78.26400766754149 320.27999998092656 79.03200766754149 320.51999998092657 80.08800766754149 318.93599998092657 88.7808076675415" fill="none" stroke-linecap="join" stroke-width="1" stroke="#000000"></path><path d="M335.4240304985047 72.00000003814696L332.4000304985047 88.62960003814696 332.8560304985047 86.35200003814697 331.5600304985047 87.42240003814698 329.9760304985047 88.40400003814698 328.4640304985047 88.78080003814698 327.2640304985047 88.55520003814698 326.18403049850474 88.02720003814697 325.12803049850476 86.73600003814697 324.76803049850474 85.00800003814697 324.98403049850475 82.89600003814698 325.96803049850473 80.40000003814698 327.48003049850473 78.50400003814698 329.52003049850475 77.59200003814698 331.03203049850475 77.44800003814697 332.40003049850475 77.97600003814698 333.3120304985047 78.57600003814697 334.05603049850475 79.48800003814698" fill="none" stroke-linecap="join" stroke-width="1" stroke="#000000"></path><path d="M347.51999998092657 88.78080003814696L349.4879999809266 77.66400003814697 349.03199998092657 80.16000003814696 350.23199998092656 79.24800003814696 351.35999998092655 78.43200003814695 352.41599998092653 77.83200003814696 353.5679999809265 77.52000003814696 354.5519999809265 77.66400003814697 355.1519999809265 77.97600003814696 355.82399998092654 78.72000003814696 356.06399998092655 80.01600003814697 355.89599998092655 81.60000003814697 354.62399998092656 88.78080003814698 356.13599998092656 80.40000003814697 356.5919999809266 79.77600003814698 358.3919999809266 78.36000003814698 359.7599999809266 77.73600003814698 360.74399998092656 77.44800003814699 361.72799998092654 77.73600003814698 362.39999998092657 78.12000003814698 363.0239999809266 79.10400003814698 363.0239999809266 81.07200003814698 361.6559999809266 88.70640003814698" fill="none" stroke-linecap="join" stroke-width="1" stroke="#000000"></path><path d="M371.49599998092657 88.70639240875244L371.5679999809266 88.70639240875244 373.1519999809266 88.32959240875243 374.7359999809266 87.34559240875244 375.86399998092656 85.82399240875243 376.63199998092654 84.16799240875243 376.91999998092655 82.58399240875242 376.91999998092655 81.14399240875242 376.70399998092654 79.87199240875242 376.1759999809265 78.88799240875242 375.19199998092654 77.97599240875242 374.13599998092656 77.59199240875242 373.1519999809266 77.51999240875242 371.8559999809266 77.73599240875241 370.5839999809266 78.43199240875241 369.4319999809266 79.55999240875241 368.6879999809266 80.6159924087524 367.94399998092655 82.19999240875241 367.77599998092654 83.42399240875241 367.63199998092654 84.83999240875241 367.77599998092654 86.13599240875241 368.47199998092657 87.34559240875241 369.35999998092655 88.17839240875242 370.41599998092653 88.62959240875242 371.4959999809265 88.70639240875242" fill="none" stroke-linecap="join" stroke-width="1" stroke="#000000"></path><path d="M381.1679999809266 88.70639240875244L383.1359999809266 77.59199240875243 382.5359999809266 80.99999240875243 383.44799998092657 79.63199240875244 384.71999998092656 78.26399240875244 385.91999998092655 77.73599240875244 387.07199998092653 77.59199240875243 387.74399998092656 77.66399240875243" fill="none" stroke-linecap="join" stroke-width="1" stroke="#000000"></path><path d="M389.3999999809266 82.80000003814698L397.7279999809266 82.80000003814698 397.9439999809266 81.45600003814698 397.8719999809266 79.70400003814699 397.0319999809266 78.36000003814699 395.97599998092664 77.59200003814699 394.39199998092664 77.52000003814699 392.73599998092664 77.97600003814699 391.22399998092664 79.10400003814699 390.38399998092666 80.23200003814699 389.5679999809267 81.67200003814699 389.18399998092667 83.18400003814699 389.18399998092667 85.00800003814699 389.5679999809267 86.664000038147 390.6959999809267 88.027200038147 391.89599998092666 88.629600038147 393.47999998092666 88.780800038147 394.84799998092666 88.404000038147 396.35999998092666 87.722400038147" fill="none" stroke-linecap="join" stroke-width="1" stroke="#000000"></path></g>
</svg>