<?xml version="1.0" standalone="no"?>
<!DOCTYPE svg PUBLIC "-//W3C//DTD SVG 1.1//EN" "http://www.w3.org/Graphics/SVG/1.1/DTD/svg11.dtd"><svg xmlns="http://www.w3.org/2000/svg" viewBox="0 0 612 792" width="612" height="792"><title>CNC Fill Text</title>
<g><path d="M1.7356872383800237e-8 11.631600032424926L6.3018000173568725 3.2424924967244806e-8 7.489800017356872 7.3260000324249255 2.377800017356873 7.3260000324249255 7.489800017356872 7.3260000324249255 8.227800017356872 11.631600032424924" fill="none" stroke-linecap="join" stroke-width="1" stroke="#000000"></path><path d="M18.25380097103119 3.348000747680663L16.77780097103119 11.575800747680663 17.17380097103119 9.414000747680664 16.38180097103119 10.159200747680664 15.53580097103119 10.895400747680664 14.40180097103119 11.462400747680665 13.42980097103119 11.631600747680665 12.47580097103119 11.349000747680664 11.845800971031188 10.782000747680664 11.62980097103119 10.044000747680665 11.79180097103119 8.622000747680664 12.69180097103119 3.348000747680664" fill="none" stroke-linecap="join" stroke-width="1" stroke="#000000"></path><path d="M22.213798110008238 11.179800747680662L21.187798110008238 11.972700747680662 20.514598110008237 12.936600747680663 20.231998110008238 13.950000747680662 20.791798110008237 14.814000747680662 22.05179811000824 15.372000747680662 23.527798110008238 15.552000747680662 24.985798110008236 15.210000747680663 26.461798110008235 14.292000747680664 27.145798110008236 13.446000747680664 27.253798110008237 12.483000747680665 26.929798110008235 11.575800747680665 25.723798110008236 11.235600747680666 22.267798110008236 11.235600747680666 21.655798110008238 10.726200747680666 21.42179811000824 9.936000747680666 21.70979811000824 9.198000747680666 22.89779811000824 8.118000747680666 23.45579811000824 8.514000747680667 24.373798110008238 8.676000747680668 25.61579811000824 8.280000747680667 26.58779811000824 7.488000747680667 27.19979811000824 6.5340007476806665 27.379798110008238 5.400000747680666 27.145798110008236 4.374000747680666 26.857798110008236 3.924000747680666 26.191798110008236 3.4200007476806658 28.909798110008236 3.4200007476806658 26.137798110008237 3.4200007476806658 25.32779811000824 3.240000747680666 24.03179811000824 3.3480007476806657 23.00579811000824 4.086000747680666 22.26779811000824 5.112000747680666 21.99779811000824 6.246000747680666 22.10579811000824 7.146000747680667 22.44779811000824 7.722000747680667 22.84379811000824 8.172000747680666" fill="none" stroke-linecap="join" stroke-width="1" stroke="#000000"></path><path d="M37.40580001735687 3.348000747680663L35.92980001735687 11.575800747680663 36.32580001735687 9.414000747680664 35.53380001735687 10.159200747680664 34.68780001735687 10.895400747680664 33.55380001735687 11.462400747680665 32.58180001735687 11.631600747680665 31.62780001735687 11.349000747680664 30.997800017356866 10.782000747680664 30.781800017356865 10.044000747680665 30.943800017356864 8.622000747680664 31.843800017356862 3.348000747680664" fill="none" stroke-linecap="join" stroke-width="1" stroke="#000000"></path><path d="M39.66660001735687 10.497602178192137L40.573800017356874 11.179802178192137 41.59980001735688 11.518202178192137 42.499800017356876 11.631602178192137 43.68780001735688 11.235602178192138 44.71380001735688 10.555202178192138 45.10980001735688 9.540002178192138 45.05580001735688 8.514002178192138 44.20980001735688 7.668002178192138 42.89580001735688 7.092002178192137 41.70780001735688 6.534002178192138 41.07780001735688 5.796002178192138 41.07780001735688 4.950002178192138 41.54580001735688 4.140002178192138 42.553800017356885 3.3480021781921385 43.74180001735689 3.1860021781921386 44.821800017356885 3.4200021781921386 45.68580001735688 3.9780021781921384" fill="none" stroke-linecap="join" stroke-width="1" stroke="#000000"></path><path d="M51.39180001735687 11.235600986099241L50.725800017356875 11.518200986099242 49.91580001735687 11.518200986099242 49.17780001735687 11.293200986099242 48.72780001735687 10.555200986099242 48.85380001735687 9.306000986099242 49.915800017356865 3.4740009860992425 48.223800017356865 3.4740009860992425 52.57980001735687 3.4740009860992425 49.915800017356865 3.4740009860992425 50.38380001735686 0.9180009860992429" fill="none" stroke-linecap="join" stroke-width="1" stroke="#000000"></path><path d="M65.39579620265961 1.1520007476806633L63.54179620265961 1.2060007476806631 65.57579620265962 0.46800074768066313 63.649796202659616 11.349000747680662 60.805796202659614 11.349000747680662 66.4217962026596 11.349000747680662" fill="none" stroke-linecap="join" stroke-width="1" stroke="#000000"></path><path d="M69.60780001735687 10.555200986099242L70.16580001735687 11.179800986099242 71.06580001735688 11.518200986099242 72.14580001735688 11.631600986099242 73.40580001735688 11.066400986099241 74.64780001735689 9.990000986099242 75.54780001735689 8.352000986099242 76.17780001735689 6.354000986099242 76.51980001735689 4.4820009860992425 76.46580001735688 2.736000986099243 75.99780001735688 1.368000986099243 75.09780001735687 0.5760009860992432 73.85580001735687 0.34200098609924323 72.48780001735688 0.8100009860992432 71.58780001735687 1.6020009860992435 70.90380001735687 2.6100009860992435 70.56180001735687 3.6360009860992433 70.45380001735687 4.770000986099243 70.84980001735687 5.958000986099243 71.87580001735687 6.696000986099243 73.17180001735687 6.876000986099243 74.80980001735688 6.246000986099242 75.83580001735687 5.400000986099242 76.51980001735687 4.662000986099242" fill="none" stroke-linecap="join" stroke-width="1" stroke="#000000"></path><path d="M78.62580001735687 10.555200986099242L79.18380001735687 11.179800986099242 80.08380001735688 11.518200986099242 81.16380001735688 11.631600986099242 82.42380001735688 11.066400986099241 83.66580001735689 9.990000986099242 84.56580001735689 8.352000986099242 85.19580001735689 6.354000986099242 85.53780001735689 4.4820009860992425 85.48380001735688 2.736000986099243 85.01580001735688 1.368000986099243 84.11580001735688 0.5760009860992432 82.87380001735687 0.34200098609924323 81.50580001735688 0.8100009860992432 80.60580001735687 1.6020009860992435 79.92180001735687 2.6100009860992435 79.57980001735687 3.6360009860992433 79.47180001735687 4.770000986099243 79.86780001735687 5.958000986099243 80.89380001735687 6.696000986099243 82.18980001735687 6.876000986099243 83.82780001735688 6.246000986099242 84.85380001735687 5.400000986099242 85.53780001735687 4.662000986099242" fill="none" stroke-linecap="join" stroke-width="1" stroke="#000000"></path><path d="M87.64380001735687 10.555200986099242L88.20180001735687 11.179800986099242 89.10180001735688 11.518200986099242 90.18180001735688 11.631600986099242 91.44180001735688 11.066400986099241 92.68380001735689 9.990000986099242 93.5838000173569 8.352000986099242 94.21380001735689 6.354000986099242 94.55580001735689 4.4820009860992425 94.50180001735689 2.736000986099243 94.03380001735688 1.368000986099243 93.13380001735688 0.5760009860992432 91.89180001735687 0.34200098609924323 90.52380001735688 0.8100009860992432 89.62380001735687 1.6020009860992435 88.93980001735687 2.6100009860992435 88.59780001735687 3.6360009860992433 88.48980001735687 4.770000986099243 88.88580001735687 5.958000986099243 89.91180001735687 6.696000986099243 91.20780001735687 6.876000986099243 92.84580001735688 6.246000986099242 93.87180001735688 5.400000986099242 94.55580001735687 4.662000986099242" fill="none" stroke-linecap="join" stroke-width="1" stroke="#000000"></path></g>
</svg>