<?xml version="1.0" encoding="UTF-8" standalone="no"?>
<!-- Created with Inkscape (http://www.inkscape.org/) -->

<svg
   width="210mm"
   height="297mm"
   viewBox="0 0 210 297"
   version="1.1"
   id="svg1"
   xml:space="preserve"
   xmlns="http://www.w3.org/2000/svg"
   xmlns:svg="http://www.w3.org/2000/svg"><defs
     id="defs1" /><g
     id="layer1"><path
       style="fill:none;stroke:#252425;stroke-width:0.0990054"
       d="m 0.52859149,0.54230802 c 0,0.187032 -0.00871,0.455202 0.00436,0.62703698 0.00624,0.08196 -0.0126163,0.1634421 0.002978,0.2185401 0.049488,-0.04383 0.13364132,-0.1147781 0.19668362,-0.2015901 0.077522,-0.106749 0.179932,-0.26204498 0.28405491,-0.36266298 0.19878,-0.192088 0.4520719,-0.31506 0.7273792,-0.337025 0.2292406,-0.01829 0.4845537,0.0044 0.6911423,0.117484 0.1265106,0.06924 0.2258345,0.170972 0.2989058,0.294879 0.045949,0.07791 0.079661,0.17247698 0.1082377,0.24872798 0.029226,0.07798 0.051961,0.122977 0.075257,0.169987 0.044514,-0.04676 0.087879,-0.09184 0.1474095,-0.172175 0.1157883,-0.15625398 0.3126163,-0.38662498 0.5023526,-0.49545298 0.2061835,-0.118261 0.4356417,-0.168568 0.6704742,-0.168409 0.2156994,1.48e-4 0.4442305,0.03257 0.6275485,0.159162 0.269917,0.18639 0.3591674,0.49627498 0.4005134,0.80261098 0.01236,0.09158 0.01761,0.179917 0.019,0.27243 0.0029,0.193506 7.57e-4,0.392585 7.57e-4,0.586772 V 3.853377 M 2.9175904,1.317685 c -0.00633,0.06301 -0.013373,0.125601 -0.017325,0.21068 -0.00842,0.181136 -0.00365,0.453009 -0.00365,0.648521 v 1.676491 m -2.36594357,-2.4612992 0.001717,0.2820422 -0.00382,0.75424 v 1.425017"
       id="path1" /></g></svg>
