<svg viewBox="0, 0, 540, 540" width="540" height="540"><line stroke-width="0.4" stroke="#FFFFFF" x1="539.9588776922257" y1="265.28785026193344" x2="539.9588776922257" y2="265.28785026193344"></line><line stroke-width="0.4" stroke="#FFFFFF" x1="539.9588776922257" y1="274.71214973806656" x2="424.8656378147824" y2="48.82894804197221"></line><line stroke-width="0.4" stroke="#FFFFFF" x1="539.6299743837349" y1="284.1307081855948" x2="182.09659829656772" y2="14.709984588184454"></line><line stroke-width="0.4" stroke="#FFFFFF" x1="538.9725684847713" y1="293.5320505418677" x2="11.797715889980452" y2="191.05963972486097"></line><line stroke-width="0.4" stroke="#FFFFFF" x1="537.987460943157" y1="302.90472271938984" x2="54.36841228723091" y2="432.49005625105303"></line><line stroke-width="0.4" stroke="#FFFFFF" x1="536.6758519606872" y1="312.23730556086235" x2="274.71214973806656" y2="539.9588776922257"></line><line stroke-width="0.4" stroke="#FFFFFF" x1="535.0393395308693" y1="321.5184287516671" x2="491.17105195802776" y2="424.8656378147824"></line><line stroke-width="0.4" stroke="#FFFFFF" x1="533.0799174920135" y1="330.73678467284356" x2="525.2900154118156" y2="182.0965982965677"></line><line stroke-width="0.4" stroke="#FFFFFF" x1="530.7999730980484" y1="339.8811421776806" x2="348.9403602751389" y2="11.797715889980452"></line><line stroke-width="0.4" stroke="#FFFFFF" x1="528.2022841100196" y1="348.9403602751389" x2="107.50994374894697" y2="54.36841228723094"></line><line stroke-width="0.4" stroke="#FFFFFF" x1="525.2900154118156" y1="357.9034017034323" x2="0.041122307774344335" y2="274.7121497380665"></line><line stroke-width="0.4" stroke="#FFFFFF" x1="522.0667151542444" y1="366.75934637723105" x2="115.13436218521753" y2="491.17105195802776"></line><line stroke-width="0.4" stroke="#FFFFFF" x1="518.5363104321589" y1="375.4974046921039" x2="357.90340170343234" y2="525.2900154118155"></line><line stroke-width="0.4" stroke="#FFFFFF" x1="514.7031024998955" y1="384.10693066998886" x2="528.2022841100196" y2="348.9403602751389"></line><line stroke-width="0.4" stroke="#FFFFFF" x1="510.57176153085936" y1="392.5774349296776" x2="485.63158771276903" y2="107.50994374894697"></line><line stroke-width="0.4" stroke="#FFFFFF" x1="506.1473209276369" y1="400.898597466511" x2="265.28785026193344" y2="0.041122307774344335"></line><line stroke-width="0.4" stroke="#FFFFFF" x1="501.4351711895703" y1="409.0602802257146" x2="48.82894804197221" y2="115.13436218521753"></line><line stroke-width="0.4" stroke="#FFFFFF" x1="496.4410533452645" y1="417.0525394540573" x2="14.709984588184454" y2="357.9034017034323"></line><line stroke-width="0.4" stroke="#FFFFFF" x1="491.17105195802776" y1="424.8656378147824" x2="191.05963972486109" y2="528.2022841100196"></line><line stroke-width="0.4" stroke="#FFFFFF" x1="485.6315877127691" y1="432.49005625105303" x2="432.49005625105303" y2="485.63158771276903"></line><line stroke-width="0.4" stroke="#FFFFFF" x1="479.82940959338214" y1="439.9165055834561" x2="539.9588776922257" y2="265.28785026193344"></line><line stroke-width="0.4" stroke="#FFFFFF" x1="473.77158666014844" y1="447.135937827437" x2="424.8656378147824" y2="48.82894804197221"></line><line stroke-width="0.4" stroke="#FFFFFF" x1="467.46549943717605" y1="454.13955721687455" x2="182.09659829656772" y2="14.709984588184454"></line><line stroke-width="0.4" stroke="#FFFFFF" x1="460.9188309203679" y1="460.9188309203678" x2="11.797715889980452" y2="191.05963972486097"></line><line stroke-width="0.4" stroke="#FFFFFF" x1="454.1395572168746" y1="467.46549943717605" x2="54.36841228723091" y2="432.49005625105303"></line><line stroke-width="0.4" stroke="#FFFFFF" x1="447.135937827437" y1="473.77158666014844" x2="274.71214973806656" y2="539.9588776922257"></line><line stroke-width="0.4" stroke="#FFFFFF" x1="439.9165055834561" y1="479.82940959338214" x2="491.17105195802776" y2="424.8656378147824"></line><line stroke-width="0.4" stroke="#FFFFFF" x1="432.49005625105303" y1="485.63158771276903" x2="525.2900154118156" y2="182.0965982965677"></line><line stroke-width="0.4" stroke="#FFFFFF" x1="424.8656378147824" y1="491.17105195802776" x2="348.9403602751389" y2="11.797715889980452"></line><line stroke-width="0.4" stroke="#FFFFFF" x1="417.0525394540573" y1="496.4410533452645" x2="107.50994374894697" y2="54.36841228723094"></line><line stroke-width="0.4" stroke="#FFFFFF" x1="409.0602802257147" y1="501.43517118957027" x2="0.041122307774344335" y2="274.7121497380665"></line><line stroke-width="0.4" stroke="#FFFFFF" x1="400.89859746651103" y1="506.1473209276369" x2="115.13436218521753" y2="491.17105195802776"></line><line stroke-width="0.4" stroke="#FFFFFF" x1="392.5774349296776" y1="510.5717615308593" x2="357.90340170343234" y2="525.2900154118155"></line><line stroke-width="0.4" stroke="#FFFFFF" x1="384.10693066998886" y1="514.7031024998955" x2="528.2022841100196" y2="348.9403602751389"></line><line stroke-width="0.4" stroke="#FFFFFF" x1="375.4974046921039" y1="518.5363104321589" x2="485.63158771276903" y2="107.50994374894697"></line><line stroke-width="0.4" stroke="#FFFFFF" x1="366.7593463772311" y1="522.0667151542444" x2="265.28785026193344" y2="0.041122307774344335"></line><line stroke-width="0.4" stroke="#FFFFFF" x1="357.90340170343234" y1="525.2900154118155" x2="48.82894804197221" y2="115.13436218521753"></line><line stroke-width="0.4" stroke="#FFFFFF" x1="348.9403602751389" y1="528.2022841100195" x2="14.709984588184454" y2="357.9034017034323"></line><line stroke-width="0.4" stroke="#FFFFFF" x1="339.88114217768066" y1="530.7999730980484" x2="191.05963972486109" y2="528.2022841100196"></line><line stroke-width="0.4" stroke="#FFFFFF" x1="330.7367846728436" y1="533.0799174920135" x2="432.49005625105303" y2="485.63158771276903"></line><line stroke-width="0.4" stroke="#FFFFFF" x1="321.5184287516671" y1="535.0393395308693" x2="539.9588776922257" y2="265.28785026193344"></line><line stroke-width="0.4" stroke="#FFFFFF" x1="312.2373055608624" y1="536.6758519606872" x2="424.8656378147824" y2="48.82894804197221"></line><line stroke-width="0.4" stroke="#FFFFFF" x1="302.90472271938984" y1="537.987460943157" x2="182.09659829656772" y2="14.709984588184454"></line><line stroke-width="0.4" stroke="#FFFFFF" x1="293.53205054186776" y1="538.9725684847713" x2="11.797715889980452" y2="191.05963972486097"></line><line stroke-width="0.4" stroke="#FFFFFF" x1="284.13070818559487" y1="539.6299743837349" x2="54.36841228723091" y2="432.49005625105303"></line><line stroke-width="0.4" stroke="#FFFFFF" x1="274.71214973806656" y1="539.9588776922257" x2="274.71214973806656" y2="539.9588776922257"></line><line stroke-width="0.4" stroke="#FFFFFF" x1="265.2878502619335" y1="539.9588776922257" x2="491.17105195802776" y2="424.8656378147824"></line><line stroke-width="0.4" stroke="#FFFFFF" x1="255.86929181440516" y1="539.6299743837349" x2="525.2900154118156" y2="182.0965982965677"></line><line stroke-width="0.4" stroke="#FFFFFF" x1="246.46794945813232" y1="538.9725684847713" x2="348.9403602751389" y2="11.797715889980452"></line><line stroke-width="0.4" stroke="#FFFFFF" x1="237.09527728061022" y1="537.987460943157" x2="107.50994374894697" y2="54.36841228723094"></line><line stroke-width="0.4" stroke="#FFFFFF" x1="227.76269443913768" y1="536.6758519606872" x2="0.041122307774344335" y2="274.7121497380665"></line><line stroke-width="0.4" stroke="#FFFFFF" x1="218.48157124833295" y1="535.0393395308693" x2="115.13436218521753" y2="491.17105195802776"></line><line stroke-width="0.4" stroke="#FFFFFF" x1="209.26321532715644" y1="533.0799174920135" x2="357.90340170343234" y2="525.2900154118155"></line><line stroke-width="0.4" stroke="#FFFFFF" x1="200.11885782231943" y1="530.7999730980484" x2="528.2022841100196" y2="348.9403602751389"></line><line stroke-width="0.4" stroke="#FFFFFF" x1="191.05963972486109" y1="528.2022841100196" x2="485.63158771276903" y2="107.50994374894697"></line><line stroke-width="0.4" stroke="#FFFFFF" x1="182.09659829656772" y1="525.2900154118156" x2="265.28785026193344" y2="0.041122307774344335"></line><line stroke-width="0.4" stroke="#FFFFFF" x1="173.24065362276895" y1="522.0667151542444" x2="48.82894804197221" y2="115.13436218521753"></line><line stroke-width="0.4" stroke="#FFFFFF" x1="164.50259530789612" y1="518.5363104321589" x2="14.709984588184454" y2="357.9034017034323"></line><line stroke-width="0.4" stroke="#FFFFFF" x1="155.8930693300111" y1="514.7031024998955" x2="191.05963972486109" y2="528.2022841100196"></line><line stroke-width="0.4" stroke="#FFFFFF" x1="147.42256507032238" y1="510.57176153085936" x2="432.49005625105303" y2="485.63158771276903"></line><line stroke-width="0.4" stroke="#FFFFFF" x1="139.10140253348902" y1="506.1473209276369" x2="539.9588776922257" y2="265.28785026193344"></line><line stroke-width="0.4" stroke="#FFFFFF" x1="130.93971977428535" y1="501.4351711895703" x2="424.8656378147824" y2="48.82894804197221"></line><line stroke-width="0.4" stroke="#FFFFFF" x1="122.94746054594268" y1="496.4410533452645" x2="182.09659829656772" y2="14.709984588184454"></line><line stroke-width="0.4" stroke="#FFFFFF" x1="115.13436218521753" y1="491.17105195802776" x2="11.797715889980452" y2="191.05963972486097"></line><line stroke-width="0.4" stroke="#FFFFFF" x1="107.50994374894694" y1="485.63158771276903" x2="54.36841228723091" y2="432.49005625105303"></line><line stroke-width="0.4" stroke="#FFFFFF" x1="100.08349441654386" y1="479.82940959338214" x2="274.71214973806656" y2="539.9588776922257"></line><line stroke-width="0.4" stroke="#FFFFFF" x1="92.86406217256297" y1="473.7715866601484" x2="491.17105195802776" y2="424.8656378147824"></line><line stroke-width="0.4" stroke="#FFFFFF" x1="85.86044278312545" y1="467.46549943717605" x2="525.2900154118156" y2="182.0965982965677"></line><line stroke-width="0.4" stroke="#FFFFFF" x1="79.0811690796321" y1="460.9188309203678" x2="348.9403602751389" y2="11.797715889980452"></line><line stroke-width="0.4" stroke="#FFFFFF" x1="72.53450056282398" y1="454.13955721687455" x2="107.50994374894697" y2="54.36841228723094"></line><line stroke-width="0.4" stroke="#FFFFFF" x1="66.22841333985156" y1="447.135937827437" x2="0.041122307774344335" y2="274.7121497380665"></line><line stroke-width="0.4" stroke="#FFFFFF" x1="60.17059040661786" y1="439.9165055834561" x2="115.13436218521753" y2="491.17105195802776"></line><line stroke-width="0.4" stroke="#FFFFFF" x1="54.36841228723091" y1="432.49005625105303" x2="357.90340170343234" y2="525.2900154118155"></line><line stroke-width="0.4" stroke="#FFFFFF" x1="48.82894804197218" y1="424.8656378147824" x2="528.2022841100196" y2="348.9403602751389"></line><line stroke-width="0.4" stroke="#FFFFFF" x1="43.55894665473548" y1="417.05253945405724" x2="485.63158771276903" y2="107.50994374894697"></line><line stroke-width="0.4" stroke="#FFFFFF" x1="38.564828810429646" y1="409.06028022571456" x2="265.28785026193344" y2="0.041122307774344335"></line><line stroke-width="0.4" stroke="#FFFFFF" x1="33.852679072363145" y1="400.89859746651103" x2="48.82894804197221" y2="115.13436218521753"></line><line stroke-width="0.4" stroke="#FFFFFF" x1="29.428238469140638" y1="392.57743492967757" x2="14.709984588184454" y2="357.9034017034323"></line><line stroke-width="0.4" stroke="#FFFFFF" x1="25.296897500104507" y1="384.10693066998886" x2="191.05963972486109" y2="528.2022841100196"></line><line stroke-width="0.4" stroke="#FFFFFF" x1="21.4636895678411" y1="375.49740469210394" x2="432.49005625105303" y2="485.63158771276903"></line><line stroke-width="0.4" stroke="#FFFFFF" x1="17.933284845755537" y1="366.75934637723105" x2="539.9588776922257" y2="265.28785026193344"></line><line stroke-width="0.4" stroke="#FFFFFF" x1="14.709984588184454" y1="357.9034017034323" x2="424.8656378147824" y2="48.82894804197221"></line><line stroke-width="0.4" stroke="#FFFFFF" x1="11.797715889980452" y1="348.940360275139" x2="182.09659829656772" y2="14.709984588184454"></line><line stroke-width="0.4" stroke="#FFFFFF" x1="9.20002690195156" y1="339.88114217768054" x2="11.797715889980452" y2="191.05963972486097"></line><line stroke-width="0.4" stroke="#FFFFFF" x1="6.9200825079864785" y1="330.7367846728435" x2="54.36841228723091" y2="432.49005625105303"></line><line stroke-width="0.4" stroke="#FFFFFF" x1="4.960660469130744" y1="321.51842875166705" x2="274.71214973806656" y2="539.9588776922257"></line><line stroke-width="0.4" stroke="#FFFFFF" x1="3.3241480393128313" y1="312.23730556086235" x2="491.17105195802776" y2="424.8656378147824"></line><line stroke-width="0.4" stroke="#FFFFFF" x1="2.0125390568430817" y1="302.90472271938984" x2="525.2900154118156" y2="182.0965982965677"></line><line stroke-width="0.4" stroke="#FFFFFF" x1="1.0274315152287272" y1="293.5320505418677" x2="348.9403602751389" y2="11.797715889980452"></line><line stroke-width="0.4" stroke="#FFFFFF" x1="0.37002561626502484" y1="284.1307081855947" x2="107.50994374894697" y2="54.36841228723094"></line><line stroke-width="0.4" stroke="#FFFFFF" x1="0.041122307774344335" y1="274.7121497380665" x2="0.041122307774344335" y2="274.7121497380665"></line><line stroke-width="0.4" stroke="#FFFFFF" x1="0.041122307774344335" y1="265.28785026193344" x2="115.13436218521753" y2="491.17105195802776"></line><line stroke-width="0.4" stroke="#FFFFFF" x1="0.3700256162650817" y1="255.86929181440524" x2="357.90340170343234" y2="525.2900154118155"></line></svg>