<svg viewBox="0, 0, 540, 540" width="540" height="540"><line stroke-width="0.4" stroke="#FFFFFF" x1="540" y1="270" x2="540" y2="270"></line><line stroke-width="0.4" stroke="#FFFFFF" x1="539.9588776922257" y1="274.71214973806656" x2="539.8355232951558" y2="279.4228641096753"></line><line stroke-width="0.4" stroke="#FFFFFF" x1="539.8355232951558" y1="279.4228641096753" x2="539.3422935701526" y2="288.83424791091386"></line><line stroke-width="0.4" stroke="#FFFFFF" x1="539.6299743837349" y1="284.1307081855948" x2="538.5209117494337" y2="298.2226850822664"></line><line stroke-width="0.4" stroke="#FFFFFF" x1="539.3422935701526" y1="288.83424791091386" x2="537.372378560224" y2="307.5767372592177"></line><line stroke-width="0.4" stroke="#FFFFFF" x1="538.9725684847713" y1="293.5320505418677" x2="535.8980933132962" y2="316.8850079700712"></line><line stroke-width="0.4" stroke="#FFFFFF" x1="538.5209117494337" y1="298.2226850822664" x2="534.0998521981276" y2="326.136156520795"></line><line stroke-width="0.4" stroke="#FFFFFF" x1="537.987460943157" y1="302.90472271938984" x2="531.9798460945191" y2="335.3189118119103"></line><line stroke-width="0.4" stroke="#FFFFFF" x1="537.372378560224" y1="307.5767372592177" x2="529.5406579033461" y2="344.4220860705898"></line><line stroke-width="0.4" stroke="#FFFFFF" x1="536.6758519606872" y1="312.23730556086235" x2="526.7852593996914" y2="353.4345884812358"></line><line stroke-width="0.4" stroke="#FFFFFF" x1="535.8980933132962" y1="316.8850079700712" x2="523.7170076121953" y2="362.34543869793055"></line><line stroke-width="0.4" stroke="#FFFFFF" x1="535.0393395308693" y1="321.5184287516671" x2="520.3396407330326" y2="371.14378022229624"></line><line stroke-width="0.4" stroke="#FFFFFF" x1="534.0998521981276" y1="326.136156520795" x2="516.6572735635023" y2="379.81889363046605"></line><line stroke-width="0.4" stroke="#FFFFFF" x1="533.0799174920135" y1="330.73678467284356" x2="512.6743925007751" y2="388.3602096330509"></line><line stroke-width="0.4" stroke="#FFFFFF" x1="531.9798460945191" y1="335.3189118119103" x2="508.3958500719103" y2="396.7573219521905"></line><line stroke-width="0.4" stroke="#FFFFFF" x1="530.7999730980484" y1="339.8811421776806" x2="503.82685902179844" y2="405"></line><line stroke-width="0.4" stroke="#FFFFFF" x1="529.5406579033461" y1="344.4220860705898" x2="498.97298596223504" y2="413.0782013429653"></line><line stroke-width="0.4" stroke="#FFFFFF" x1="528.2022841100195" y1="348.9403602751389" x2="493.84014458986127" y2="420.98208393710166"></line><line stroke-width="0.4" stroke="#FFFFFF" x1="526.7852593996914" y1="353.4345884812358" x2="488.4345884812358" y2="428.70201811896777"></line><line stroke-width="0.4" stroke="#FFFFFF" x1="525.2900154118156" y1="357.9034017034323" x2="482.76290347381496" y2="436.2285983379277"></line><line stroke-width="0.4" stroke="#FFFFFF" x1="523.7170076121953" y1="362.34543869793055" x2="476.83199964212406" y2="443.5526546153656"></line><line stroke-width="0.4" stroke="#FFFFFF" x1="522.0667151542444" y1="366.75934637723105" x2="470.64910287889643" y2="450.66526371689173"></line><line stroke-width="0.4" stroke="#FFFFFF" x1="520.3396407330326" y1="371.14378022229624" x2="464.2217460914358" y2="457.5577600239293"></line><line stroke-width="0.4" stroke="#FFFFFF" x1="518.5363104321589" y1="375.4974046921039" x2="457.5577600239293" y2="464.22174609143576"></line><line stroke-width="0.4" stroke="#FFFFFF" x1="516.6572735635023" y1="379.81889363046605" x2="450.66526371689173" y2="470.64910287889643"></line><line stroke-width="0.4" stroke="#FFFFFF" x1="514.7031024998955" y1="384.10693066998886" x2="443.55265461536567" y2="476.83199964212406"></line><line stroke-width="0.4" stroke="#FFFFFF" x1="512.6743925007751" y1="388.3602096330509" x2="436.22859833792774" y2="482.76290347381496"></line><line stroke-width="0.4" stroke="#FFFFFF" x1="510.57176153085936" y1="392.5774349296776" x2="428.70201811896777" y2="488.4345884812358"></line><line stroke-width="0.4" stroke="#FFFFFF" x1="508.3958500719103" y1="396.7573219521905" x2="420.9820839371016" y2="493.84014458986127"></line><line stroke-width="0.4" stroke="#FFFFFF" x1="506.1473209276369" y1="400.898597466511" x2="413.0782013429653" y2="498.97298596223504"></line><line stroke-width="0.4" stroke="#FFFFFF" x1="503.82685902179844" y1="405" x2="405" y2="503.82685902179844"></line><line stroke-width="0.4" stroke="#FFFFFF" x1="501.4351711895703" y1="409.0602802257146" x2="396.7573219521905" y2="508.3958500719102"></line><line stroke-width="0.4" stroke="#FFFFFF" x1="498.97298596223504" y1="413.0782013429653" x2="388.3602096330509" y2="512.6743925007751"></line><line stroke-width="0.4" stroke="#FFFFFF" x1="496.4410533452645" y1="417.0525394540573" x2="379.81889363046605" y2="516.6572735635023"></line><line stroke-width="0.4" stroke="#FFFFFF" x1="493.84014458986127" y1="420.98208393710166" x2="371.14378022229624" y2="520.3396407330326"></line><line stroke-width="0.4" stroke="#FFFFFF" x1="491.17105195802776" y1="424.8656378147824" x2="362.3454386979306" y2="523.7170076121952"></line><line stroke-width="0.4" stroke="#FFFFFF" x1="488.4345884812358" y1="428.70201811896777" x2="353.4345884812358" y2="526.7852593996914"></line><line stroke-width="0.4" stroke="#FFFFFF" x1="485.63158771276903" y1="432.49005625105303" x2="344.4220860705898" y2="529.5406579033461"></line><line stroke-width="0.4" stroke="#FFFFFF" x1="482.76290347381496" y1="436.2285983379277" x2="335.3189118119103" y2="531.9798460945191"></line><line stroke-width="0.4" stroke="#FFFFFF" x1="479.82940959338214" y1="439.9165055834561" x2="326.13615652079505" y2="534.0998521981276"></line><line stroke-width="0.4" stroke="#FFFFFF" x1="476.83199964212406" y1="443.5526546153656" x2="316.88500797007123" y2="535.8980933132962"></line><line stroke-width="0.4" stroke="#FFFFFF" x1="473.77158666014844" y1="447.1359378274369" x2="307.57673725921774" y2="537.372378560224"></line><line stroke-width="0.4" stroke="#FFFFFF" x1="470.64910287889643" y1="450.66526371689173" x2="298.2226850822664" y2="538.5209117494337"></line><line stroke-width="0.4" stroke="#FFFFFF" x1="467.46549943717605" y1="454.13955721687455" x2="288.83424791091386" y2="539.3422935701526"></line><line stroke-width="0.4" stroke="#FFFFFF" x1="464.2217460914358" y1="457.5577600239293" x2="279.4228641096753" y2="539.8355232951558"></line><line stroke-width="0.4" stroke="#FFFFFF" x1="460.91883092036784" y1="460.91883092036784" x2="270" y2="540"></line><line stroke-width="0.4" stroke="#FFFFFF" x1="457.5577600239293" y1="464.22174609143576" x2="260.5771358903248" y2="539.8355232951558"></line><line stroke-width="0.4" stroke="#FFFFFF" x1="454.13955721687455" y1="467.46549943717605" x2="251.16575208908617" y2="539.3422935701526"></line><line stroke-width="0.4" stroke="#FFFFFF" x1="450.66526371689173" y1="470.64910287889643" x2="241.7773149177336" y2="538.5209117494338"></line><line stroke-width="0.4" stroke="#FFFFFF" x1="447.135937827437" y1="473.77158666014844" x2="232.42326274078235" y2="537.372378560224"></line><line stroke-width="0.4" stroke="#FFFFFF" x1="443.55265461536567" y1="476.83199964212406" x2="223.11499202992883" y2="535.8980933132962"></line><line stroke-width="0.4" stroke="#FFFFFF" x1="439.9165055834561" y1="479.82940959338214" x2="213.86384347920503" y2="534.0998521981276"></line><line stroke-width="0.4" stroke="#FFFFFF" x1="436.22859833792774" y1="482.76290347381496" x2="204.6810881880897" y2="531.9798460945191"></line><line stroke-width="0.4" stroke="#FFFFFF" x1="432.49005625105303" y1="485.63158771276903" x2="195.57791392941027" y2="529.5406579033461"></line><line stroke-width="0.4" stroke="#FFFFFF" x1="428.70201811896777" y1="488.4345884812358" x2="186.56541151876422" y2="526.7852593996915"></line><line stroke-width="0.4" stroke="#FFFFFF" x1="424.8656378147824" y1="491.17105195802776" x2="177.65456130206945" y2="523.7170076121953"></line><line stroke-width="0.4" stroke="#FFFFFF" x1="420.9820839371016" y1="493.84014458986127" x2="168.85621977770376" y2="520.3396407330326"></line><line stroke-width="0.4" stroke="#FFFFFF" x1="417.05253945405735" y1="496.44105334526444" x2="160.18110636953398" y2="516.6572735635023"></line><line stroke-width="0.4" stroke="#FFFFFF" x1="413.0782013429653" y1="498.97298596223504" x2="151.63979036694906" y2="512.6743925007751"></line><line stroke-width="0.4" stroke="#FFFFFF" x1="409.0602802257147" y1="501.43517118957027" x2="143.24267804780956" y2="508.39585007191033"></line><line stroke-width="0.4" stroke="#FFFFFF" x1="405" y1="503.82685902179844" x2="135.00000000000006" y2="503.82685902179844"></line><line stroke-width="0.4" stroke="#FFFFFF" x1="400.89859746651103" y1="506.1473209276369" x2="126.92179865703471" y2="498.97298596223504"></line><line stroke-width="0.4" stroke="#FFFFFF" x1="396.7573219521905" y1="508.3958500719102" x2="119.0179160628984" y2="493.84014458986127"></line><line stroke-width="0.4" stroke="#FFFFFF" x1="392.5774349296776" y1="510.5717615308593" x2="111.29798188103229" y2="488.4345884812358"></line><line stroke-width="0.4" stroke="#FFFFFF" x1="388.3602096330509" y1="512.6743925007751" x2="103.77140166207226" y2="482.76290347381496"></line><line stroke-width="0.4" stroke="#FFFFFF" x1="384.10693066998886" y1="514.7031024998955" x2="96.44734538463436" y2="476.83199964212406"></line><line stroke-width="0.4" stroke="#FFFFFF" x1="379.81889363046605" y1="516.6572735635023" x2="89.33473628310827" y2="470.64910287889643"></line><line stroke-width="0.4" stroke="#FFFFFF" x1="375.49740469210394" y1="518.5363104321589" x2="82.4422399760708" y2="464.2217460914359"></line><line stroke-width="0.4" stroke="#FFFFFF" x1="371.14378022229624" y1="520.3396407330326" x2="75.77825390856415" y2="457.55776002392923"></line><line stroke-width="0.4" stroke="#FFFFFF" x1="366.7593463772311" y1="522.0667151542444" x2="69.35089712110357" y2="450.6652637168918"></line><line stroke-width="0.4" stroke="#FFFFFF" x1="362.3454386979306" y1="523.7170076121952" x2="63.16800035787597" y2="443.55265461536567"></line><line stroke-width="0.4" stroke="#FFFFFF" x1="357.90340170343234" y1="525.2900154118155" x2="57.2370965261851" y2="436.2285983379278"></line><line stroke-width="0.4" stroke="#FFFFFF" x1="353.4345884812358" y1="526.7852593996914" x2="51.56541151876422" y2="428.70201811896777"></line><line stroke-width="0.4" stroke="#FFFFFF" x1="348.9403602751389" y1="528.2022841100195" x2="46.15985541013876" y2="420.98208393710166"></line><line stroke-width="0.4" stroke="#FFFFFF" x1="344.4220860705898" y1="529.5406579033461" x2="41.027014037764985" y2="413.0782013429653"></line><line stroke-width="0.4" stroke="#FFFFFF" x1="339.8811421776806" y1="530.7999730980484" x2="36.17314097820156" y2="405"></line><line stroke-width="0.4" stroke="#FFFFFF" x1="335.3189118119103" y1="531.9798460945191" x2="31.604149928089782" y2="396.7573219521906"></line><line stroke-width="0.4" stroke="#FFFFFF" x1="330.73678467284356" y1="533.0799174920135" x2="27.3256074992249" y2="388.3602096330509"></line><line stroke-width="0.4" stroke="#FFFFFF" x1="326.13615652079505" y1="534.0998521981276" x2="23.3427264364978" y2="379.8188936304661"></line><line stroke-width="0.4" stroke="#FFFFFF" x1="321.5184287516671" y1="535.0393395308693" x2="19.66035926696742" y2="371.1437802222963"></line><line stroke-width="0.4" stroke="#FFFFFF" x1="316.88500797007123" y1="535.8980933132962" x2="16.282992387804768" y2="362.3454386979306"></line><line stroke-width="0.4" stroke="#FFFFFF" x1="312.23730556086235" y1="536.6758519606872" x2="13.214740600308573" y2="353.43458848123583"></line><line stroke-width="0.4" stroke="#FFFFFF" x1="307.57673725921774" y1="537.372378560224" x2="10.459342096653984" y2="344.4220860705899"></line><line stroke-width="0.4" stroke="#FFFFFF" x1="302.90472271938984" y1="537.987460943157" x2="8.020153905480925" y2="335.3189118119103"></line><line stroke-width="0.4" stroke="#FFFFFF" x1="298.2226850822664" y1="538.5209117494337" x2="5.900147801872436" y2="326.136156520795"></line><line stroke-width="0.4" stroke="#FFFFFF" x1="293.5320505418677" y1="538.9725684847713" x2="4.101906686703842" y2="316.8850079700712"></line><line stroke-width="0.4" stroke="#FFFFFF" x1="288.83424791091386" y1="539.3422935701526" x2="2.6276214397760214" y2="307.57673725921774"></line><line stroke-width="0.4" stroke="#FFFFFF" x1="284.13070818559487" y1="539.6299743837349" x2="1.4790882505662353" y2="298.2226850822665"></line><line stroke-width="0.4" stroke="#FFFFFF" x1="279.4228641096753" y1="539.8355232951558" x2="0.6577064298474511" y2="288.8342479109139"></line><line stroke-width="0.4" stroke="#FFFFFF" x1="274.7121497380665" y1="539.9588776922257" x2="0.1644767048441622" y2="279.4228641096752"></line><line stroke-width="0.4" stroke="#FFFFFF" x1="270" y1="540" x2="0" y2="270.00000000000006"></line><line stroke-width="0.4" stroke="#FFFFFF" x1="265.28785026193344" y1="539.9588776922257" x2="0.1644767048441622" y2="260.57713589032477"></line><line stroke-width="0.4" stroke="#FFFFFF" x1="260.5771358903248" y1="539.8355232951558" x2="0.6577064298474511" y2="251.1657520890863"></line><line stroke-width="0.4" stroke="#FFFFFF" x1="255.86929181440522" y1="539.6299743837349" x2="1.4790882505661784" y2="241.7773149177337"></line><line stroke-width="0.4" stroke="#FFFFFF" x1="251.16575208908617" y1="539.3422935701526" x2="2.6276214397760214" y2="232.42326274078232"></line><line stroke-width="0.4" stroke="#FFFFFF" x1="246.46794945813227" y1="538.9725684847713" x2="4.101906686703842" y2="223.11499202992877"></line><line stroke-width="0.4" stroke="#FFFFFF" x1="241.7773149177336" y1="538.5209117494338" x2="5.900147801872436" y2="213.86384347920506"></line><line stroke-width="0.4" stroke="#FFFFFF" x1="237.09527728061022" y1="537.987460943157" x2="8.020153905480925" y2="204.68108818808977"></line><line stroke-width="0.4" stroke="#FFFFFF" x1="232.42326274078235" y1="537.372378560224" x2="10.459342096653927" y2="195.57791392941027"></line><line stroke-width="0.4" stroke="#FFFFFF" x1="227.76269443913762" y1="536.6758519606872" x2="13.214740600308573" y2="186.5654115187641"></line><line stroke-width="0.4" stroke="#FFFFFF" x1="223.11499202992883" y1="535.8980933132962" x2="16.28299238780471" y2="177.65456130206945"></line><line stroke-width="0.4" stroke="#FFFFFF" x1="218.4815712483329" y1="535.0393395308693" x2="19.66035926696739" y2="168.85621977770376"></line><line stroke-width="0.4" stroke="#FFFFFF" x1="213.86384347920503" y1="534.0998521981276" x2="23.342726436497713" y2="160.18110636953406"></line><line stroke-width="0.4" stroke="#FFFFFF" x1="209.2632153271565" y1="533.0799174920135" x2="27.325607499224873" y2="151.63979036694917"></line><line stroke-width="0.4" stroke="#FFFFFF" x1="204.6810881880897" y1="531.9798460945191" x2="31.604149928089754" y2="143.24267804780948"></line><line stroke-width="0.4" stroke="#FFFFFF" x1="200.11885782231937" y1="530.7999730980484" x2="36.17314097820159" y2="134.99999999999997"></line><line stroke-width="0.4" stroke="#FFFFFF" x1="195.57791392941027" y1="529.5406579033461" x2="41.02701403776496" y2="126.92179865703471"></line><line stroke-width="0.4" stroke="#FFFFFF" x1="191.05963972486109" y1="528.2022841100196" x2="46.15985541013873" y2="119.0179160628984"></line><line stroke-width="0.4" stroke="#FFFFFF" x1="186.56541151876422" y1="526.7852593996915" x2="51.56541151876419" y2="111.29798188103229"></line><line stroke-width="0.4" stroke="#FFFFFF" x1="182.09659829656778" y1="525.2900154118156" x2="57.237096526184985" y2="103.77140166207238"></line><line stroke-width="0.4" stroke="#FFFFFF" x1="177.65456130206945" y1="523.7170076121953" x2="63.16800035787594" y2="96.44734538463439"></line><line stroke-width="0.4" stroke="#FFFFFF" x1="173.24065362276895" y1="522.0667151542444" x2="69.35089712110354" y2="89.33473628310827"></line><line stroke-width="0.4" stroke="#FFFFFF" x1="168.85621977770376" y1="520.3396407330326" x2="75.77825390856421" y2="82.44223997607074"></line><line stroke-width="0.4" stroke="#FFFFFF" x1="164.50259530789612" y1="518.5363104321589" x2="82.44223997607068" y2="75.77825390856427"></line><line stroke-width="0.4" stroke="#FFFFFF" x1="160.18110636953398" y1="516.6572735635023" x2="89.33473628310821" y2="69.35089712110363"></line><line stroke-width="0.4" stroke="#FFFFFF" x1="155.8930693300112" y1="514.7031024998955" x2="96.44734538463433" y2="63.16800035787597"></line><line stroke-width="0.4" stroke="#FFFFFF" x1="151.63979036694906" y1="512.6743925007751" x2="103.77140166207232" y2="57.23709652618501"></line><line stroke-width="0.4" stroke="#FFFFFF" x1="147.42256507032238" y1="510.57176153085936" x2="111.29798188103223" y2="51.56541151876422"></line><line stroke-width="0.4" stroke="#FFFFFF" x1="143.24267804780956" y1="508.39585007191033" x2="119.01791606289825" y2="46.15985541013882"></line><line stroke-width="0.4" stroke="#FFFFFF" x1="139.10140253348902" y1="506.1473209276369" x2="126.92179865703466" y2="41.027014037764985"></line><line stroke-width="0.4" stroke="#FFFFFF" x1="135.00000000000006" y1="503.82685902179844" x2="134.9999999999999" y2="36.173140978201616"></line><line stroke-width="0.4" stroke="#FFFFFF" x1="130.93971977428535" y1="501.4351711895703" x2="143.24267804780948" y2="31.604149928089726"></line><line stroke-width="0.4" stroke="#FFFFFF" x1="126.92179865703471" y1="498.97298596223504" x2="151.639790366949" y2="27.325607499224958"></line><line stroke-width="0.4" stroke="#FFFFFF" x1="122.94746054594268" y1="496.4410533452645" x2="160.18110636953398" y2="23.342726436497742"></line><line stroke-width="0.4" stroke="#FFFFFF" x1="119.0179160628984" y1="493.84014458986127" x2="168.8562197777037" y2="19.66035926696742"></line><line stroke-width="0.4" stroke="#FFFFFF" x1="115.13436218521764" y1="491.1710519580279" x2="177.65456130206928" y2="16.282992387804796"></line><line stroke-width="0.4" stroke="#FFFFFF" x1="111.29798188103229" y1="488.4345884812358" x2="186.56541151876417" y2="13.214740600308573"></line><line stroke-width="0.4" stroke="#FFFFFF" x1="107.50994374894694" y1="485.63158771276903" x2="195.5779139294103" y2="10.45934209665387"></line><line stroke-width="0.4" stroke="#FFFFFF" x1="103.77140166207226" y1="482.76290347381496" x2="204.6810881880897" y2="8.020153905480925"></line><line stroke-width="0.4" stroke="#FFFFFF" x1="100.08349441654394" y1="479.82940959338214" x2="213.86384347920486" y2="5.900147801872492"></line><line stroke-width="0.4" stroke="#FFFFFF" x1="96.44734538463436" y1="476.83199964212406" x2="223.11499202992883" y2="4.101906686703842"></line><line stroke-width="0.4" stroke="#FFFFFF" x1="92.86406217256297" y1="473.7715866601484" x2="232.42326274078246" y2="2.6276214397760214"></line><line stroke-width="0.4" stroke="#FFFFFF" x1="89.33473628310827" y1="470.64910287889643" x2="241.7773149177336" y2="1.4790882505661784"></line><line stroke-width="0.4" stroke="#FFFFFF" x1="85.86044278312545" y1="467.46549943717605" x2="251.16575208908608" y2="0.6577064298474511"></line><line stroke-width="0.4" stroke="#FFFFFF" x1="82.4422399760708" y1="464.2217460914359" x2="260.57713589032454" y2="0.1644767048441622"></line><line stroke-width="0.4" stroke="#FFFFFF" x1="79.08116907963219" y1="460.91883092036784" x2="269.99999999999994" y2="0"></line><line stroke-width="0.4" stroke="#FFFFFF" x1="75.77825390856415" y1="457.55776002392923" x2="279.42286410967534" y2="0.1644767048441622"></line><line stroke-width="0.4" stroke="#FFFFFF" x1="72.53450056282398" y1="454.13955721687455" x2="288.8342479109138" y2="0.6577064298474511"></line><line stroke-width="0.4" stroke="#FFFFFF" x1="69.35089712110357" y1="450.6652637168918" x2="298.2226850822663" y2="1.4790882505661784"></line><line stroke-width="0.4" stroke="#FFFFFF" x1="66.22841333985156" y1="447.135937827437" x2="307.5767372592177" y2="2.6276214397760214"></line><line stroke-width="0.4" stroke="#FFFFFF" x1="63.16800035787597" y1="443.55265461536567" x2="316.8850079700711" y2="4.101906686703785"></line><line stroke-width="0.4" stroke="#FFFFFF" x1="60.17059040661792" y1="439.91650558345617" x2="326.1361565207948" y2="5.900147801872436"></line><line stroke-width="0.4" stroke="#FFFFFF" x1="57.2370965261851" y1="436.2285983379278" x2="335.3189118119102" y2="8.020153905480925"></line><line stroke-width="0.4" stroke="#FFFFFF" x1="54.36841228723091" y1="432.49005625105303" x2="344.42208607058984" y2="10.459342096653927"></line><line stroke-width="0.4" stroke="#FFFFFF" x1="51.56541151876422" y1="428.70201811896777" x2="353.4345884812358" y2="13.214740600308517"></line><line stroke-width="0.4" stroke="#FFFFFF" x1="48.82894804197227" y1="424.86563781478253" x2="362.3454386979304" y2="16.282992387804683"></line><line stroke-width="0.4" stroke="#FFFFFF" x1="46.15985541013876" y1="420.98208393710166" x2="371.14378022229624" y2="19.66035926696739"></line><line stroke-width="0.4" stroke="#FFFFFF" x1="43.55894665473548" y1="417.05253945405724" x2="379.81889363046616" y2="23.3427264364978"></line><line stroke-width="0.4" stroke="#FFFFFF" x1="41.027014037764985" y1="413.0782013429653" x2="388.3602096330509" y2="27.3256074992249"></line><line stroke-width="0.4" stroke="#FFFFFF" x1="38.5648288104297" y1="409.0602802257147" x2="396.7573219521904" y2="31.604149928089697"></line><line stroke-width="0.4" stroke="#FFFFFF" x1="36.17314097820156" y1="405" x2="405" y2="36.17314097820159"></line><line stroke-width="0.4" stroke="#FFFFFF" x1="33.852679072363145" y1="400.89859746651103" x2="413.07820134296526" y2="41.02701403776496"></line><line stroke-width="0.4" stroke="#FFFFFF" x1="31.604149928089782" y1="396.7573219521906" x2="420.9820839371015" y2="46.15985541013865"></line><line stroke-width="0.4" stroke="#FFFFFF" x1="29.428238469140695" y1="392.5774349296777" x2="428.70201811896766" y2="51.565411518764165"></line><line stroke-width="0.4" stroke="#FFFFFF" x1="27.3256074992249" y1="388.3602096330509" x2="436.2285983379278" y2="57.23709652618513"></line><line stroke-width="0.4" stroke="#FFFFFF" x1="25.296897500104507" y1="384.10693066998886" x2="443.5526546153656" y2="63.16800035787591"></line><line stroke-width="0.4" stroke="#FFFFFF" x1="23.3427264364978" y1="379.8188936304661" x2="450.6652637168916" y2="69.35089712110346"></line><line stroke-width="0.4" stroke="#FFFFFF" x1="21.463689567841158" y1="375.49740469210406" x2="457.55776002392906" y2="75.77825390856404"></line><line stroke-width="0.4" stroke="#FFFFFF" x1="19.66035926696742" y1="371.1437802222963" x2="464.22174609143576" y2="82.44223997607065"></line><line stroke-width="0.4" stroke="#FFFFFF" x1="17.933284845755537" y1="366.75934637723105" x2="470.64910287889643" y2="89.3347362831083"></line><line stroke-width="0.4" stroke="#FFFFFF" x1="16.282992387804768" y1="362.3454386979306" x2="476.831999642124" y2="96.4473453846343"></line><line stroke-width="0.4" stroke="#FFFFFF" x1="14.709984588184483" y1="357.9034017034324" x2="482.76290347381484" y2="103.77140166207212"></line><line stroke-width="0.4" stroke="#FFFFFF" x1="13.214740600308573" y1="353.43458848123583" x2="488.4345884812358" y2="111.2979818810322"></line><line stroke-width="0.4" stroke="#FFFFFF" x1="11.797715889980452" y1="348.940360275139" x2="493.8401445898612" y2="119.01791606289822"></line><line stroke-width="0.4" stroke="#FFFFFF" x1="10.459342096653984" y1="344.4220860705899" x2="498.9729859622349" y2="126.92179865703443"></line><line stroke-width="0.4" stroke="#FFFFFF" x1="9.20002690195156" y1="339.88114217768066" x2="503.8268590217983" y2="134.9999999999999"></line><line stroke-width="0.4" stroke="#FFFFFF" x1="8.020153905480925" y1="335.3189118119103" x2="508.3958500719103" y2="143.24267804780948"></line><line stroke-width="0.4" stroke="#FFFFFF" x1="6.9200825079864785" y1="330.7367846728435" x2="512.6743925007752" y2="151.6397903669492"></line><line stroke-width="0.4" stroke="#FFFFFF" x1="5.900147801872436" y1="326.136156520795" x2="516.6572735635023" y2="160.18110636953395"></line><line stroke-width="0.4" stroke="#FFFFFF" x1="4.960660469130744" y1="321.51842875166716" x2="520.3396407330326" y2="168.85621977770367"></line><line stroke-width="0.4" stroke="#FFFFFF" x1="4.101906686703842" y1="316.8850079700712" x2="523.7170076121953" y2="177.65456130206948"></line><line stroke-width="0.4" stroke="#FFFFFF" x1="3.3241480393128313" y1="312.23730556086235" x2="526.7852593996914" y2="186.5654115187641"></line><line stroke-width="0.4" stroke="#FFFFFF" x1="2.6276214397760214" y1="307.57673725921774" x2="529.5406579033461" y2="195.57791392941004"></line><line stroke-width="0.4" stroke="#FFFFFF" x1="2.0125390568430817" y1="302.90472271938984" x2="531.9798460945191" y2="204.6810881880897"></line><line stroke-width="0.4" stroke="#FFFFFF" x1="1.4790882505662353" y1="298.2226850822665" x2="534.0998521981276" y2="213.86384347920483"></line><line stroke-width="0.4" stroke="#FFFFFF" x1="1.0274315152287272" y1="293.5320505418678" x2="535.8980933132962" y2="223.11499202992854"></line><line stroke-width="0.4" stroke="#FFFFFF" x1="0.6577064298474511" y1="288.8342479109139" x2="537.372378560224" y2="232.4232627407822"></line><line stroke-width="0.4" stroke="#FFFFFF" x1="0.3700256162650817" y1="284.1307081855948" x2="538.5209117494337" y2="241.77731491773358"></line><line stroke-width="0.4" stroke="#FFFFFF" x1="0.1644767048441622" y1="279.4228641096752" x2="539.3422935701526" y2="251.1657520890863"></line><line stroke-width="0.4" stroke="#FFFFFF" x1="0.041122307774344335" y1="274.7121497380665" x2="539.8355232951558" y2="260.57713589032477"></line><line stroke-width="0.4" stroke="#FFFFFF" x1="0" y1="270.00000000000006" x2="540" y2="270"></line></svg>