<?xml version="1.0" encoding="UTF-8" standalone="no"?>
<svg
   width="414"
   height="552"
   viewBox="0 0 414 552"
   version="1.1"
   id="svg13"
   xmlns="http://www.w3.org/2000/svg"
   xmlns:svg="http://www.w3.org/2000/svg">
  <defs
     id="defs13" />
  <path
     d="M44.850004049447875 354.99889821455844 L44.30244374122361 354.9219251021016 L43.762479390994045 354.6915937572725 L43.23768784101496 354.3083503050801 L42.735609741493825 353.77310862321053 L42.26372434503975 353.0872834220041 L41.829427442368406 352.25273989967013 L41.44001632179578 351.2716897381007 L41.10268343466308 350.1465588427999 L40.82451348011577 348.87990355488597 L40.612463525732 347.47453767648506 L40.47331110499977 345.93387194782565 L40.413716181813086 344.2611600530519 L40.44017941171602 342.45986052689386 L40.55895614394202 340.53415616794524 L40.775988735828314 338.48915538363383 L41.096841163722246 336.3310142511845 L41.52666042516871 334.06687042454064 L42.070206364459274 331.70442573997013 L42.73201500650218 329.25094370034606 L43.51665734109513 326.7120241979168 L44.42792946065319 324.0959153479554 L45.46937212466707 321.4105388209317 L46.645050936053536 318.6599872208731 L47.95934926153772 315.84605340502736 L49.416456711673554 312.97071124581635 L51.019691037285156 310.0388272014693 L52.77100172754061 307.0597185805573 L54.67133594646752 304.0451258970554 L56.72274785037589 301.00074107986677 L58.92586718673521 297.93650534726163 L61.27738827910328 294.8756788899744 L63.77518461014226 291.83493621113576 L66.41958755085032 288.82035418241736 L69.21402990338851 285.82575506815175 L72.16489414186488 282.8336529844481 L75.2800206829962 279.82055949221257 L78.56519849954262 276.7690272238154 L82.01800945379729 273.68897400490823 L85.63480751812664 270.59223642361803 L89.41981653039423 267.4595955378699 L93.36280586616071 264.3212265056769 L97.44265398826944 261.2457196173021 L101.63627771399096 258.3101931932316 L105.92782208818709 255.56788239632047 L110.31480314926038 253.02367130637575 L114.80675012404382 250.63463457157658 L119.41099459998065 248.36166237908182 L124.10909579833397 246.27060512355524 L128.88566670880076 244.42295804057957 L133.75715717701416 242.74058777623785 L138.75427286988207 241.05652244286932 L143.90067853919408 239.19596483972518 L149.19656705950734 237.05993624656156 L154.6129349638411 234.68581476712671 L160.1015219068237 232.24356126359626 L165.62238150137395 229.90516821880374 L171.1713790401443 227.61578251103165 L176.72386347001358 225.4926952168705 L182.2473299220157 223.84761785028795 L187.73267492025894 222.9677905631333 L193.19760009384694 223.015486153219 L198.6780907751293 223.9450689027671 L204.20959989685056 225.47552057568353 L209.80580706555403 227.17613120647886 L215.45107504422685 228.70562412016196 L221.1237212105286 230.14542676590796 L226.81499818319736 231.69274936956026 L232.5127532513929 233.32996568374045 L238.2000204667573 235.00326598540855 L243.85397199572444 236.63804050501165 L249.44831820136284 238.16701624438235 L254.95798304048904 239.55444795438888 L260.3646869192016 240.812672807315 L265.66226643746023 242.0109263044351 L270.8606122138028 243.2760731736294 L275.9742367247961 244.71956935664184 L280.9942629239702 246.3133386961431 L285.90030133389575 247.981333793617 L290.6773498430647 249.68194079822248 L295.32262181711667 251.42745786924735 L299.84424785505894 253.26887654984017 L304.2547349086961 255.26545790237927 L308.56211270459664 257.4516956955255 L312.7613320698602 259.80946234839206 L316.83831803655914 262.2884813787619 L320.7919360303755 264.88838389887167 L324.62429932722694 267.6197907796884 L328.33308606074854 270.4763814679993 L331.9105851600836 273.43219264468655 L335.3460062541599 276.44993483373895 L338.6290741760459 279.49326072523706 L341.7535132161798 282.5385802238372 L344.71956442888495 285.58395112716244 L347.53163948163194 288.6411092970205 L350.18954297755175 291.70380112489545 L352.6950027728802 294.77160541765875 L355.0499792596214 297.8439807187457 L357.25508784279623 300.9142658776987 L359.30986548592966 303.97025731179394 L361.213767312766 306.99765691002574 L362.96720579182204 309.98407621255086 L364.5722688971505 312.9222887361836 L366.03262948425873 315.8105570892385 L367.3510657152012 318.64223634472586 L368.5301717881535 321.40837975326406 L369.57338242980813 324.10236463124744 L370.4848149390892 326.71956228037084 L371.26896040170243 329.2561611682252 L371.93041705136625 331.7079211943314 L372.4737439320956 334.0692555836341 L372.90344386515864 336.3327900414258 L373.22410401067896 338.4897683809729 L373.44107995401714 340.5344105191544 L373.5600504911185 342.46159710782854 L373.5868002045795 344.26536811202936 L373.52742882537143 345.94042512972715 L373.38835789922837 347.48251307251934 L373.176262091705 348.88824521333055 L372.8979961545195 350.15475991241044 L372.5605449643873 351.27941279321624 L372.1709999318582 352.25958676906697 L371.73655921316276 353.0927256781319 L371.2645502633509 353.7769420596986 L370.76239139403947 354.3108787509178 L370.2375577722905 354.6933712841477 L369.697571955081 354.9234259433892 L369.1499959505521 355.0003209511888"
     stroke="#000000"
     stroke-width="0.9859801675671729px"
     fill="none"
     stroke-linecap="butt"
     stroke-linejoin="miter"
     id="path1" />
  <path
     d="M44.850004049447875 364.8828975287016 L44.19909609921927 364.8037674912053 L43.55602687353391 364.56625643799765 L42.92861870750101 364.1709618697844 L42.32465423475557 363.6188844652924 L41.751857319671004 362.9114092329772 L41.2178766576312 362.0502618177626 L40.730273038087134 361.03745034816296 L40.29650976722205 359.87521040879795 L39.92394225206103 358.56599243576795 L39.619796033138414 357.1125652093335 L39.39112260660367 355.5182576649272 L39.24478734676476 353.7868205835498 L39.187437733829974 351.9224985970201 L39.22547200573874 349.93006969119114 L39.36503318613788 347.8147033022465 L39.61202321305783 345.58174427659367 L39.97213300740291 343.2364724903483 L40.45086877457021 340.783952452423 L41.05352821070575 338.2291857333979 L41.785069145827194 335.5777650612688 L42.650121569469555 332.83565930291724 L43.6528345088166 330.00983257592407 L44.79669781029578 327.1088517353503 L46.08458409395389 324.1424188772795 L47.51888744953858 321.1206028399936 L49.10172682337223 318.0529512849588 L50.8351235665436 314.9478513729411 L52.720970897763486 311.8127960209076 L54.76046719080555 308.65668169034154 L56.95299357464937 305.4939604846023 L59.297765016504755 302.33797939819834 L61.79539738345187 299.1953505331685 L64.44780174794231 296.06683800854495 L67.25761392893978 292.9496815194971 L70.2272412668849 289.8410076824269 L73.35769465279387 286.74178454923833 L76.64755219880058 283.6602333067938 L80.09262488949102 280.61286160279724 L83.68713658535711 277.62034237784474 L87.42740327280745 274.6945251258237 L91.31332347669476 271.832954844459 L95.34668332227874 269.0244230842044 L99.52876755241793 266.2569920592676 L103.85800168847007 263.52640106734185 L108.32852528883402 260.8419567066861 L112.93089236219642 258.22523150141683 L117.65632277585505 255.69446578935637 L122.50966105510877 253.20841304269172 L127.50336529517543 250.68116138528356 L132.6199306620428 248.14771898311128 L137.82166788215648 245.74578919654317 L143.0696370995756 243.64989927969938 L148.33995773088205 241.9981044531813 L153.6325255829906 240.83014234605167 L158.96758790137636 240.0680297096267 L164.3676765518079 239.58685728975314 L169.83007299555908 239.41818847717843 L173.75715240474895 239.59506675182237"
     stroke="#000000"
     stroke-width="0.9859801675671729px"
     fill="none"
     stroke-linecap="butt"
     stroke-linejoin="miter"
     id="path2" />
  <path
     d="M270.4049334208308 253.1579790114243 L272.71064262369157 253.19123957181273 L277.7060581674644 253.42740688838114 L282.56058104589556 253.7606567857739 L287.288100468493 254.26442740858735 L291.91726377748023 255.06026882921768 L296.47369057712274 256.23779380374003 L300.9706714850762 257.8269128368174 L305.40693720063825 259.80069767762507 L309.76943398254525 262.0938805603521 L314.03905811105744 264.6273901764183 L318.20812581115234 267.3722016130725 L322.28025754550873 270.343354851493 L326.2431790022315 273.49833049298775 L330.07638126434205 276.767004382892 L333.75925548790644 280.08020769201306 L337.2760321769125 283.38562801867744 L340.61813253242457 286.6547517105125 L343.78457021395224 289.88372288534225 L346.7810108808452 293.0903266111847 L349.6136431304848 296.292653265488 L352.27993790043257 299.4754305816617 L354.7821344103206 302.63916475233634 L357.1251276273464 305.7932181135459 L359.3131046916452 308.94372623715344 L361.3484581255607 312.08930925649975 L363.2319654907974 315.22121950316944 L364.96353418511035 318.325641367495 L366.5430606151276 321.38666428058156 L367.97175129044524 324.3917188675271 L369.2540255577924 327.34070941380065 L370.3926595263491 330.225196446772 L371.38977158298877 333.03177494610406 L372.24848603332646 335.7495677588227 L372.97317263447644 338.37200881138324 L373.5690827250986 340.89581928941095 L374.0418596822748 343.31901036951916 L374.3971607295705 345.6389621825234 L374.64046420930254 347.8510377031554 L374.77717162977416 349.9486971123617 L374.81315423818313 351.9269700830464 L374.75458794655214 353.7817298170151 L374.6077640944636 355.5083977501291 L374.37910252311514 357.10187104917054 L374.07521759835083 358.5569562115018 L373.7029659873198 359.86888397864595 L373.26945426162905 361.0336981102043 L372.7820101216563 362.0484479333885 L372.24812436216905 362.9110576574701 L371.6753764429804 363.61961945024007 L371.0714252050362 364.17236314946615 L370.44400755415035 364.56790312059803 L369.8009200776554 364.8053142833964 L369.1499959505521 364.8841220300396"
     stroke="#000000"
     stroke-width="0.9859801675671729px"
     fill="none"
     stroke-linecap="butt"
     stroke-linejoin="miter"
     id="path3" />
  <path
     d="M44.850004049447875 374.76175051983716 L44.09581113062749 374.6796172057505 L43.34971932230698 374.43398535656456 L42.619800214915536 374.0255753076885 L41.91408363944787 373.4554385020883 L41.240543270003776 372.72492193040136 L40.60708151296839 371.8356777908121 L40.021511087240754 370.7897082424804 L39.49153137343707 369.5894377863173 L39.024700784645376 368.23777908342356 L38.62841399598306 366.7381119719359 L38.30990015436514 365.09408760915903 L38.076189529886264 363.3097836301455 L37.9340483958247 361.3900287956744 L37.88996203509733 359.3402575097631 L37.95015398441432 357.1661841462861 L38.12064043681176 354.8733745545171 L38.407300235057455 352.4668621624489 L38.81590228009509 349.95110947591286 L39.35196853456421 347.33084482558695 L40.02032712436281 344.61325369287744 L40.825230708843684 341.8068642045905 L41.77072971062318 338.9195143221886 L42.86053263545596 335.95910713942214 L44.097990316136745 332.93365754047414 L45.48608223412715 329.85132085291167 L47.027418062314624 326.72035377244856 L48.72428901299361 323.5488798863157 L50.578829156484666 320.34425038420466 L52.59329395598674 317.11202139797354 L54.768467369882245 313.86218979626994 L57.10357165484618 310.6091138848448 L59.598608168025066 307.3625306148102 L62.25475911507649 304.1264598729651 L65.07441419456933 300.8993990332453 L68.06078503763547 297.6758100002328 L71.21696653185904 294.44935385751756 L74.5443139680051 291.21837793669886 L78.04008692184273 287.99400635790585 L81.69990620163726 284.79119729858945 L85.52342302364517 281.6083332864 L89.50798155970209 278.4498636350727 L93.64742357159449 275.33082704695624 L97.93225063501788 272.27698620218183 L102.35054231248242 269.322625508479 L106.88983624513821 266.5048509925334 L111.54013391517036 263.8528899587131 L116.29810306448157 261.37048907446535 L121.15776125192143 259.0724979640429 L126.09018622210607 257.0791596182112 L131.090715021853 255.4186271981889 L136.1799869854358 254.00038760686095 L141.3901874275577 252.6508448135801 L146.7499374639397 251.16422869174912 L152.2708778527412 249.36373031977587 L157.93939833678994 247.16283131712444 L163.71670727226967 244.60993635021978 L169.55651800391846 241.82525066737907 L175.43675904105325 238.7423007906074 L181.31018510456389 235.53888196490357 L187.12342301401145 232.67375887013793 L192.8525287521589 230.67242685361057 L198.51638567116865 229.9048969762944 L204.1648195906647 230.4183420579311 L209.84876663174322 231.91798057540672 L215.5949196352335 234.00718239327077 L221.41511371874472 236.61126407663474 L227.28779000668402 239.22477743137918 L233.15045862775563 241.28560054777302 L238.95720207696255 242.797783242264 L244.69700880368828 244.05608107238317 L250.38672830383095 245.40807705017278 L256.0527768486227 247.10883786200273 L261.7112848746375 249.2519422766989 L267.3521697383858 251.75285471220107 L272.9315710479288 254.37529691308202 L278.4208656194653 257.02155753529195 L283.81035321754206 259.7029048971467 L289.0690865968991 262.3276278334722 L294.16546662366636 264.81221374360854 L299.0806360935801 267.13226347644036 L303.8119938323439 269.32423055701395 L308.3694118004826 271.4614387925573 L312.7672031511318 273.6203888037099 L317.01461120801196 275.8473227811839 L321.10229291721 278.11322393126596 L325.02191376540156 280.3920270567387 L328.7889733579335 282.74271934594253 L332.4243937163493 285.23972942946085 L335.94254834534576 287.93156093251775 L339.347033195889 290.82792580545015 L342.6313824205947 293.90334292403884 L345.78243644997076 297.1088340162728 L348.78463217456783 300.3861424904492 L351.6289169506744 303.6989593265647 L354.31807204472835 307.05276593551 L356.84666039426816 310.42151081298573 L359.20768593877654 313.7708406602275 L361.39808582496 317.07838916254417 L363.4193788790429 320.33711357209614 L365.27604041034596 323.55022218930765 L366.97326849183213 326.7232225069547 L368.5151015387325 329.8564050522983 L369.90388461490477 332.9419546399853 L371.1430398178599 335.9754369054336 L372.2354410468468 338.9487260245571 L373.183415173335 341.8493675576701 L373.98972981512645 344.6647452770968 L374.65801557284993 347.3842499122835 L375.192832419306 350.00008440061856 L375.599539698445 352.50720848742077 L375.8840822037359 354.9027976044567 L376.0527167838919 357.18515815819524 L376.1113530462721 359.3495237548342 L376.06598700730217 361.3902962147136 L375.9229618070061 363.30286783131663 L375.68880505944446 365.0826203552673 L375.3702085932995 366.724738387611 L374.9740568054906 368.2244163509771 L374.5074516854995 369.57716565976557 L373.97771588497295 370.77907171448624 L373.3923737382266 371.82695048886103 L372.75912079146156 372.7184743526775 L372.0857505959453 373.45146707176343 L371.38014329115407 374.0237725469777 L370.6502745205598 374.4336908597237 L369.90419409935595 374.68011728365025 L369.1499959505521 374.76252116001524"
     stroke="#000000"
     stroke-width="0.9859801675671729px"
     fill="none"
     stroke-linecap="butt"
     stroke-linejoin="miter"
     id="path4" />
  <path
     d="M44.850004049447875 384.64503857901724 L43.99247447197095 384.560409394677 L43.14330043469181 384.3070395154894 L42.310815443809595 383.88549480912707 L41.503307694153904 383.2969123657286 L40.72899030108378 382.5430201406278 L39.99597637455553 381.6260601062102 L39.31226407937619 380.54864031157405 L38.68573385183643 379.31355014200994 L38.12415080473535 377.92363943000214 L37.63514578210162 376.3819720402055 L37.22612591136969 374.69251744880626 L36.90424822795207 372.85999290651534 L36.67655844744299 370.88853313093153 L36.55003225276271 368.7815879323364 L36.53154259722371 366.54233243957447 L36.6277535608399 364.174375692005 L36.844954064164995 361.68258426062323 L37.18890552140229 359.07358067886787 L37.664882993189224 356.3550816315366 L38.278178900414964 353.5330619598081 L39.03406909768895 350.6122553501023 L39.93703410586711 347.6000321517923 L40.99077949539882 344.50579160989355 L42.19842144858259 341.3397863919356 L43.56281286108219 338.1115921428684 L45.0868995814104 334.8287198094475 L46.77384862818329 331.49634944766876 L48.62647824003573 328.11982957388136 L50.6454565421887 324.7116109297604 L52.83159070703917 321.2817520005222 L55.18689623335479 317.8341289885374 L57.710343274434436 314.3826849926168 L60.39825796254382 310.94926261105877 L63.245625756418306 307.5585934472195 L66.24779880247253 304.2323185350606 L69.40202198514183 300.98395801752537 L72.70776749927217 297.8181456791171 L76.16445906820175 294.73896353416694 L79.7760267985378 291.73345230719644 L83.55790547137408 288.7455981286309 L87.52046358615344 285.73448104017007 L91.66498846570973 282.68816991499955 L95.982773677931 279.62788849172443 L100.45624588706934 276.60624947515754 L105.06287268323928 273.696051593152 L109.78252315575814 270.9650042701466 L114.60874512504465 268.43034464925375 L119.55199832113382 266.0377554243189 L124.61450980646495 263.7601070505411 L129.8008586197912 261.55146240046116 L135.1131765799905 259.36445774649 L140.54216443678717 257.19579121988284 L146.06311307899335 255.12362328148123 L151.63991888018646 253.31801583760245 L157.23898376265154 251.99589189045452 L162.85236859690815 251.27943925585572 L168.52123994081842 250.9348584544156 L174.29541039592283 250.4914790467281 L180.17239069093526 249.73333169150652 L180.7452736098859 249.6264364973064"
     stroke="#000000"
     stroke-width="0.9859801675671729px"
     fill="none"
     stroke-linecap="butt"
     stroke-linejoin="miter"
     id="path5" />
  <path
     d="M218.1348001424001 246.9743758911246 L221.89598411282992 247.2815100439538 L227.80656806115454 247.48941034171898 L233.6345783465893 247.3251916446622 L239.3726918640271 247.07488436526154 L245.04927021279804 247.1556959390304 L250.71201872048823 247.9181178951735 L256.404971656842 249.53908261216407 L262.1467747998601 251.98120294081866 L267.9147175939437 254.9958218877703 L273.6390091188996 258.16678388140014 L279.2679893620831 261.28101277602923 L284.76807918444297 264.25657111499174 L290.0829947446854 266.91797498869727 L295.1729415552205 269.1822998556395 L300.03351455997546 271.1143588015551 L304.6936044759148 272.891639120984 L309.19930756465817 274.72803208552205 L313.59118821634866 276.78863496026906 L317.88144706257407 279.1159049743686 L322.05741957090055 281.65795245869623 L326.1221401913582 284.4245584243729 L330.0787475057567 287.42619809129394 L333.92153796250193 290.6421247795624 L337.63626234777803 294.0223365589635 L341.204143936385 297.50159280374805 L344.6071847533958 301.01710635368636 L347.83306019266956 304.52473812517366 L350.87857663780846 308.0108534640608 L353.74838490907723 311.4881878816696 L356.4438798413131 314.9560526831613 L358.965114449834 318.4071417530601 L361.31263698425846 321.83424269220507 L363.4876281086715 325.23084765473266 L365.49188916336743 328.59124847244277 L367.32775513300794 331.91035482085283 L368.99798282908677 335.18339700587035 L370.50564599458306 338.40561685304186 L371.85405451325715 341.57200734710284 L373.0467043120229 344.677130952998 L374.0872573634333 347.7150253555841 L374.97954682656615 350.6791915428653 L375.72760019584126 353.5626509636902 L376.3356727803007 356.3580544692859 L376.808284396565 359.0578247209756 L377.1502533933907 361.65431476431525 L377.36672368711396 364.1399677781237 L377.4631951907103 366.50755245604495 L377.4456514317826 368.75117457713463 L377.3203911241626 370.8654915890356 L377.09392365408695 372.8450954802698 L376.773003981001 374.68481135402993 L376.36463675175844 376.379860613509 L375.87606197399174 377.92592797042903 L375.314732197019 379.3191742737698 L374.6882869820946 380.55622267907086 L374.0045282420758 381.63414445934825 L373.27140529950606 382.5506127960873 L372.4969680678276 383.3035191409407 L371.68935297076075 383.89086903550344 L370.85678473941573 384.3111134090447 L370.00755509456303 384.56323647252145 L369.1499959505521 384.6467225552185"
     stroke="#000000"
     stroke-width="0.9859801675671729px"
     fill="none"
     stroke-linecap="butt"
     stroke-linejoin="miter"
     id="path6" />
  <path
     d="M44.850004049447875 394.52667547993644 L43.88914695168222 394.44032779578777 L42.9368704643303 394.18062376425326 L42.00173766154768 393.7483823614096 L41.09226785129543 393.1447087538826 L40.21692632715256 392.37092593226026 L39.3841113057001 391.42861710170536 L38.60213304453936 390.31973620945257 L37.87918268367457 389.04675726858665 L37.22329690644471 387.61276856904874 L36.64234337695644 386.02130946876093 L36.14407220093197 384.2757094184368 L35.73610006286721 382.3792917177748 L35.42575132966362 380.3365584182012 L35.21998658478675 378.15327351916926 L35.12539274707734 375.8361176415017 L35.14823867740674 373.3920664864155 L35.29458953583065 370.82763092837615 L35.57042370281734 368.1483091340187 L35.981609022448076 365.358930309464 L36.533484553225804 362.4659063914142 L37.230634235191914 359.4779820778547 L38.077845186337754 356.4012325924309 L39.08035929654466 353.23836613848755 L40.243595315492186 349.9904442531167 L41.57257309874821 346.6594953119963 L43.071151427329134 343.25142952983106 L44.74138951726584 339.7780211380763 L46.583641974983365 336.2557824994697 L48.598399653313116 332.69831043222933 L50.78850665652783 329.1081611323423 L53.154678412788854 325.49468762196375 L55.69347643332224 321.88095318165426 L58.398899561303104 318.2970781272552 L61.26493208064518 314.7709226518145 L64.28833929990438 311.3185350231206 L67.47044935134036 307.93847494258864 L70.81588287302736 304.6167752489324 L74.3253175795939 301.35271186258115 L77.98867560809752 298.18304978923385 L81.79884917133063 295.1331527303682 L85.75422292992728 292.20807654832197 L89.85586121226899 289.40232134218826 L94.10446245746245 286.71044579040006 L98.49769212011188 284.1369447589906 L103.02929991603408 281.7004967883959 L107.69184786610555 279.4248532830596 L112.48516744380294 277.3048119136678 L113.60289557569132 276.8354234534173"
     stroke="#000000"
     stroke-width="0.9859801675671729px"
     fill="none"
     stroke-linecap="butt"
     stroke-linejoin="miter"
     id="path7" />
  <path
     d="M161.54351807506742 259.27769944780357 L161.83152636673762 259.15657169756935 L167.91054445922296 256.3084836793058 L174.03378677253343 253.18466364052313 L180.1564209987247 249.93256012022528 L186.22978088470919 246.91033670579074 L192.2271457188661 244.54932772149763 L198.15563140619486 243.20091140858267 L204.05079143682084 243.0046965607526 L209.956955328149 243.8597795106616 L215.9196951175182 245.9771573013259 L221.9638289719018 248.78694964435135 L228.0378793530241 251.17442149214176 L234.09779704295792 253.10403395507376 L240.12411233912366 254.81009581434466 L246.11034630106826 256.4923054363872 L252.04822046589192 258.22866129386875 L257.92001814031613 259.99333598781413 L263.7012773293519 261.7234320035184 L269.37253336855184 263.3998157140243 L274.936669868585 265.1215464586789 L280.42020119810786 267.0744931101172 L285.81069587912316 269.21386431242877 L291.0639203214424 271.3589975217398 L296.1445775603979 273.39692880489235 L301.04499746152266 275.3413630583744 L305.78464917209703 277.30651571216185 L310.3968730127283 279.4418279975165 L314.90946933183665 281.85746357588243 L319.32493310622544 284.5588648537486 L323.61600427466635 287.44227398349847 L327.771305327974 290.469050709704 L331.79881047291053 293.67215856501485 L335.70258582456216 297.0689769102296 L339.4745300435081 300.6329426352885 L343.09646898498386 304.30180506438836 L346.54726670447366 308.0022605895003 L349.8110446767389 311.6779486129477 L352.88395795682294 315.31307814947644 L355.7739240093372 318.9322197372472 L358.4815511452084 322.5316672979998 L361.0026313357956 326.0876755096034 L363.3365146844562 329.5870783675412 L365.48747032386945 333.0333366387642 L367.4628742872093 336.4410416540815 L369.2704305943497 339.8261846082383 L370.91573252890646 343.1966247522185 L372.4007986971051 346.54512953812247 L373.7243160756658 349.8484430942235 L374.88714136590403 353.0898109214379 L375.8931585255124 356.26396728207965 L376.7464489279256 359.3653223874552 L377.4506468713742 362.3846592001065 L378.0092275011754 365.30991478609025 L378.42604268048575 368.12849636156704 L378.705753574717 370.8296548149611 L378.8540253083946 373.4061715970256 L378.87741365843095 375.85466625492376 L378.78241015243265 378.17016126084286 L378.5756461642856 380.34711444876973 L378.2642100114397 382.3818185290719 L377.85541424035847 384.27116109366 L377.3566953220345 386.01197598533156 L376.7755927465462 387.600826237911 L376.1197630498857 389.03403471107333 L375.39700216176243 390.3078370222 L374.61526195537886 391.4185762539639 L373.78266101157703 392.36300583575536 L372.90748180912425 393.1387110549782 L371.99812331594796 393.7439460563555 L371.0630619493493 394.17739109785146 L370.1108293373948 394.43806061678777 L369.1499959505521 394.5252948082775"
     stroke="#000000"
     stroke-width="0.9859801675671729px"
     fill="none"
     stroke-linecap="butt"
     stroke-linejoin="miter"
     id="path8" />
  <path
     d="M44.850004049447875 404.40676257470056 L43.785852123060735 404.3171203016501 L42.730556391282235 404.04866462275055 L41.69294870280334 403.60205335384916 L40.68181682192913 402.9783981996509 L39.705879822944496 402.179303701821 L38.77376214027008 401.20688813860676 L37.893967041107686 400.063794125099 L37.074851553520425 398.75317367113854 L36.32460695274858 397.2786234139332 L35.65125209211378 395.64403325305886 L35.06263764955281 393.8534178154309 L34.56640890810581 391.91116443038726 L34.170039660171376 389.82163044748825 L33.880847090053415 387.5890354660875 L33.70595673800486 385.2177161779786 L33.65222780014099 382.71253081301427 L33.726148593047455 380.0793039092955 L33.93374564017466 377.3250628154224 L34.28060729559937 374.4576049255131 L34.77212192377591 371.4840925177516 L35.41299154768821 368.41355479590277 L36.207021009230765 365.25751309139144 L37.157581326022154 362.02742832470057 L38.26790210088957 358.73344484476775 L39.54140797721263 355.3831692672564 L40.981981238165545 351.9809298020632 L42.59392398278737 348.52831009960346 L44.38125111124579 345.02718953666357 L46.34581116725299 341.4869022093566 L48.486553311902334 337.92621669539756 L50.8036617374005 334.3569763528834 L53.29971139125749 330.7804461482032 L55.97897562838884 327.1905084453253 L58.8460926189953 323.5786785930125 L61.904355078731015 319.94000858417786 L65.15420936510668 316.2779646955928 L68.59296755568944 312.60498848244555 L72.21721944451161 308.9336568868747 L76.02540624237872 305.2674421713386 L80.01255590320204 301.6196112846541 L84.17078433635274 298.0116690149909 L88.49186513587854 294.46447282189155 L92.96966354681342 290.9894375887568 L97.60173573127975 287.5819227145255 L102.38887514197263 284.22130405348156 L107.33110615056933 280.88458280739087 L112.41847400183367 277.5835249425037 L117.62293006561241 274.405402229792 L122.91612440764686 271.4493426099577 L128.27453937088336 268.80859924503164 L133.68399816513892 266.55056431254667 L139.1442246798983 264.68799525615196 L144.6691910387969 263.15928349598227 L150.28156281360015 261.8309746127278 L156.0004442917053 260.54216791977166 L161.82344800266563 259.2189068379337 L167.7130693263374 258.0461047807265 L173.63124101971474 257.328517340521 L179.55975350598862 257.3762306354724 L185.50381906195446 258.47560613129264 L191.49452682791787 260.80573248850953 L196.76019753455134 263.84836148982686"
     stroke="#000000"
     stroke-width="0.9859801675671729px"
     fill="none"
     stroke-linecap="butt"
     stroke-linejoin="miter"
     id="path9" />
  <path
     d="M274.8925929405803 273.83335606616174 L276.6004573710678 274.03855120095585 L281.9496589395886 274.7648179879261 L287.1230173117828 275.45351321136565 L292.1418996719646 276.23941933890814 L297.0533792215926 277.33900358391514 L301.90248667352347 278.924825066244 L306.7157144133721 281.0740406842808 L311.4945944739554 283.762623111286 L316.2170414146252 286.8851156542956 L320.84390010345345 290.2864411336694 L325.3407980370593 293.84344144109537 L329.6920464792711 297.50891883046535 L333.8798702706114 301.2289849650377 L337.8888770214297 304.9581361721224 L341.7094763989227 308.670047346252 L345.33809659900555 312.3572623421674 L348.7756103597047 316.02528462389137 L352.02505548564045 319.68472797134666 L355.0894080867756 323.3438163580622 L357.9716872322791 327.0091901795837 L360.67600536113747 330.6901663640689 L363.2011352762615 334.3750589639358 L365.5435322915517 338.04146513148135 L367.70043034952005 341.66731590523943 L369.6712681928801 345.23635685631757 L371.45801770414334 348.73995716098614 L373.06486099233354 352.17665787917963 L374.49754828154596 355.5504829417201 L375.7619961412031 358.86575301203465 L376.86117783882173 362.1131768972877 L377.7993224056924 365.2875421355788 L378.5818717283587 368.38830254432935 L379.2141272667404 371.4136882993137 L379.7008688815988 374.35852081897843 L380.0464737448238 377.21415411830054 L380.25522928625185 379.9694586698388 L380.33166090367587 382.61215402858556 L380.28080183788734 385.1301985130492 L380.1085746820303 387.5144998102944 L379.8216927072278 389.7591805295364 L379.42726071938836 391.8595779028635 L378.93262279823483 393.8114420444847 L378.3453036533152 395.6105922260957 L377.6729953406066 397.25283489332685 L376.9235615025186 398.73402292797374 L376.10504327791165 400.0501765428557 L375.22566004403313 401.197631079185 L374.2938185731242 402.1735150988827 L373.3180607914525 402.975466030132 L372.3070279711304 403.60130900281104 L371.26945862173216 404.04938269804427 L370.214163629064 404.3186264803191 L369.1499959505521 404.40853955653506"
     stroke="#000000"
     stroke-width="0.9859801675671729px"
     fill="none"
     stroke-linecap="butt"
     stroke-linejoin="miter"
     id="path10" />
  <path
     d="M44.850004049447875 414.2895280550979 L43.6825197144137 414.19750611532464 L42.524139867803825 413.92160570456997 L41.38394784558194 413.46248617444894 L40.270982906446534 412.8212609277143 L39.194217445343156 411.9995017633703 L38.16253343527927 410.99925008723574 L37.18469814573034 409.823027356902 L36.26933985842554 408.4738367619952 L35.424925621514824 406.95514101446076 L34.65974539440744 405.2707903724339 L33.98191925904619 403.42478354472127 L33.399425353385496 401.42097277255175 L32.919996577925716 399.2638845595381 L32.55104193783209 396.9590263456743 L32.299607227632485 394.51282101113406 L32.17236662854664 391.9323790559448 L32.17565184428105 389.2251304981569 L32.31550840710583 386.39841989456056 L32.597736005690315 383.45929965979207 L33.02787649855253 380.41463846648094 L33.611639188502124 377.26904389009906 L34.35469183197932 374.02624024966224 L35.26211483445317 370.6916491144548 L36.33811133292929 367.27331414296395 L37.58575768966065 363.7825137115999 L39.00690906067864 360.23367684990075 L40.6024456051631 356.6429973833171 L42.37312903098528 353.02488714627367 L44.32139026871515 349.38528621177716 L46.45196353968505 345.72008693230913 L48.76885462071537 342.027295482719 L51.27418228979445 338.31091871975605 L53.96766519205228 334.58224872702294 L56.846400967901275 330.8601854063973 L59.90516754785501 327.16989806413403 L63.13749471012912 323.53903060408106 L66.5377783200455 319.99046543763853 L70.10466213854015 316.5306375637796 L73.84018952094543 313.1527242242687 L77.74475313057896 309.8545461390664 L81.82106277730739 306.62382890182334 L86.07159639096203 303.4467325368761 L90.49490340015561 300.3210277683707 L95.08274552208042 297.26751215734566 L99.8196720237071 294.33407006178595 L104.6870123724966 291.58382158884456 L109.67347989398819 289.05490202763093 L114.78859550043205 286.6997886529221 L120.04783171322565 284.4351926979924 L125.45744525279004 282.20293829544113 L127.51527224453679 281.35096138037954"
     stroke="#000000"
     stroke-width="0.9859801675671729px"
     fill="none"
     stroke-linecap="butt"
     stroke-linejoin="miter"
     id="path11" />
  <path
     d="M142.6867217658317 275.6533420429963 L148.36366738739986 273.8506247618054 L154.29778871997254 272.29097757843 L160.2866629232413 271.0772128986585 L166.34366848078517 270.0957222225013 L172.48210818204035 269.1578269974797 L178.69887377178236 268.1160567072772 L184.976883991633 266.8701881423533 L191.28875248492798 265.3717504436022 L197.60127992856414 263.63217435615616 L203.88109890732994 261.73524915373764 L210.10183680716344 259.8517042616848 L216.25216525548265 258.23072761740127 L222.3396046829571 257.12520318381524 L228.37414153609961 256.5314011885657 L234.37200227878765 256.5248561951336 L240.3664757222777 257.30501321191883 L246.39317477849337 258.9809667846559 L252.4706317530448 261.48811662931485 L258.58885742945006 264.60851807791255 L264.7107003776653 268.04959125464114 L270.7852318702205 271.5437181831637 L276.7675250592046 274.9339440111399 L282.59631107782053 278.0162742989184 L288.21266208369553 280.6344091657344 L293.6092698226779 282.88276115610876 L298.8129077573163 284.9712443244624 L303.8639070592311 287.1216342333746 L308.7990201028376 289.5040688516628 L313.6391533234599 292.203926051444 L318.3823614470412 295.2108331460525 L323.00198517937986 298.42394307642667 L327.47443122345396 301.7619205178344 L331.796216506679 305.22108737884446 L335.9483678922235 308.7401950958813 L339.9139597914249 312.2655801731309 L343.6875420536567 315.7833817463116 L347.2743665796549 319.31539401836665 L350.68441716674454 322.89783449021934 L353.9249870178487 326.55566668279937 L356.9943079132017 330.2801562969464 L359.88093028450675 334.0258239730261 L362.5808076598736 337.7718031840496 L365.0978458571362 341.52481548530346 L367.4353332965028 345.28835673979785 L369.5934079914829 349.0528671683281 L371.5698765804384 352.7978970196479 L373.3623018347836 356.4993535938606 L374.9700778017034 360.1375175268629 L376.3958233453931 363.7034058916199 L377.6453581222384 367.2001618123384 L378.7235029330042 370.62590759976547 L379.63381465259846 373.9718311834638 L380.3802320677561 377.22908280131617 L380.96733860865197 380.39013978965943 L381.4002745493433 383.44865809951057 L381.6845495589659 386.3987449067756 L381.825883995188 389.23418986668753 L381.8301289774701 391.9479272095084 L381.7032778631063 394.5318896855086 L381.45170638412213 396.97839140197794 L381.0823252571795 399.28142264072966 L380.60241537996063 401.435973002212 L380.019520501888 403.43753476519174 L379.34139194791123 405.2818330797485 L378.575964391119 406.9647135404391 L377.7313477604542 408.48213473147854 L376.8158248569411 409.83022364745534 L375.83784809477504 411.0053624971328 L374.80603734232125 412.00439183431666 L373.72917062396834 412.8249392481773 L372.61613705603105 413.46519544412274 L371.4759037911079 413.9236939185141 L370.3174988846989 414.1992845158329 L369.1499959505521 414.2911856851707"
     stroke="#000000"
     stroke-width="0.9859801675671729px"
     fill="none"
     stroke-linecap="butt"
     stroke-linejoin="miter"
     id="path12" />
  <path
     d="M44.850004049447875 424.17094238751304 L43.57920135060485 424.0765489967896 L42.3177487800253 423.7933301920876 L41.074971488817745 423.3221371683749 L39.86014740985148 422.6641615364694 L38.68249359358471 421.8208796818426 L37.55114912283627 420.7941049889628 L36.47514986298356 419.58610483806945 L35.463393179843905 418.19974909746327 L34.524599767956595 416.6385907712976 L33.66729918891362 414.90666938004506 L32.89988817619742 413.0077751134598 L32.230625732083205 410.94558033366116 L31.66746054477208 408.72496928334556 L31.217954591331495 406.35214401974696 L30.88927796120564 403.83422958277265 L30.688274144052443 401.17858927360226 L30.621584233899625 398.3920203244161 L30.695760801417844 395.4802455404924 L30.917201526096527 392.44849477319326 L31.29172189136581 389.3037593833918 L31.82519922795254 386.0512232940394 L32.52358615273397 382.69449765037314 L33.39207935026509 379.23962418642196 L34.434790613059505 375.6960460007895 L35.654491147618685 372.07713213274513 L37.052543250248874 368.39990330798463 L38.62919971698784 364.683392647622 L40.38451910781026 360.94487417562834 L42.32010420597051 357.19340844251803 L44.43852458101029 353.4329350887962 L46.742242754115374 349.66672215941435 L49.23497438530717 345.89224607829334 L51.920615232370785 342.10533485647466 L54.80161307848187 338.3059018200196 L57.87734955107898 334.5033271575681 L61.143342138073706 330.7188630218887 L64.59253196626021 326.98085438523003 L68.22034933271604 323.3068267514652 L72.02395508479414 319.7065459403609 L75.99614378565155 316.2041653454306 L80.13807839123788 312.792274930706 L84.45787955925513 309.4356640219758 L88.96574358101793 306.08703817168043 L93.6682342715629 302.7063483960612 L98.563229200887 299.2796160871897 L103.63761110400421 295.83018941523244 L108.87032405369511 292.4113039506046 L114.24935124767089 289.03884816316594 L119.772171822724 285.6832096874373 L125.40430275506911 282.4556130739968 L131.09398362255692 279.5735153431661 L136.7970177151989 277.267760162486 L142.49627728054438 275.6856631163736 L148.20918751391403 274.8187661990328 L153.97747923211725 274.5012045128442 L159.83686583713458 274.5479854768734 L165.78251397670914 275.03342700178985 L171.81932924693933 275.98055192568415 L177.97421252823267 277.15650150747575 L184.26331251318845 278.2380674769021 L190.67724449065898 278.9407719306601 L197.18060455050596 279.1366505080216 L203.72550368863782 278.9097496203937 L210.27055183847747 278.47436123270876 L216.78713200159638 277.9475439317947 L223.24340753153433 277.1800845383403 L229.612355592118 276.25734092181017 L235.89225196557646 275.4905915622008 L242.09186040295128 275.0663276534823 L248.22337032969878 275.08520412852147 L254.29785584083933 275.58753935582445 L260.3216045369258 276.56496792619606 L266.29330920571704 277.9679654142325 L272.20227371750155 279.71265910390156 L278.02894122229463 281.6944551289803 L283.7718059789242 283.9268251016775 L289.42494909088504 286.39842787437885 L294.95440349844046 288.9726920393113 L300.3252689410448 291.5313565400497 L305.51795884977423 294.03394481117164 L310.53238230024954 296.5180621519964 L315.3833231922935 299.06923834880604 L320.09073305017785 301.7795708502826 L324.6683785280736 304.707420620319 L329.1172984034216 307.85903668259436 L333.43659300519874 311.2333676958339 L337.6236152915754 314.82341951258405 L341.66841565380474 318.59647595504117 L345.5542780571399 322.49636288403406 L349.2617923830633 326.45735798774786 L352.7740350051258 330.4213841458887 L356.0811876501177 334.35338051762176 L359.1836122692332 338.25210265992445 L362.08663973736134 342.1319974994176 L364.7868607776872 345.97342442122886 L367.2878038939534 349.77998467829383 L369.59623811576995 353.5660999908763 L371.71760197361704 357.3405210740177 L373.6548549294507 361.1016881695472 L375.40908467682345 364.8393902658317 L376.98075928414653 368.5390563959327 L378.3709517238939 372.18640700813967 L379.58212815384263 375.7709163237437 L380.6175412762964 379.28360029100367 L381.4805893951927 382.71426424529324 L382.17539864975646 386.05416247443065 L382.70689841105286 389.2966953243624 L383.08056115342856 392.4365273244299 L383.30210282285316 395.46826701259283 L383.37728316072145 398.38533948977596 L383.31184569386335 401.17933588917606 L383.1115894153114 403.83996240778976 L382.7828057168487 406.3575012562585 L382.33269358145344 408.72613348240924 L381.76891874871274 410.9418682844988 L381.0993240210736 413.00079795076164 L380.33187042386646 414.89860696745643 L379.4746656048605 416.6306894926797 L378.5360046114133 418.19248183078673 L377.5243915900573 419.5797954302393 L376.4485348860016 420.78904256338114 L375.3173079634013 421.81707101857614 L374.13973299044136 422.6612961364721 L372.92495759142514 423.3198740694736 L371.6822116514907 423.7914376240665 L370.42078218892067 424.07497508749293 L369.1499959505521 424.1698092067292"
     stroke="#000000"
     stroke-width="0.9859801675671729px"
     fill="none"
     stroke-linecap="butt"
     stroke-linejoin="miter"
     id="path13" />
</svg>
